solid OpenSCAD_Model
  facet normal 0 0 1
    outer loop
      vertex -36.3815 -4.40877 3
      vertex -31.75 -3.25 3
      vertex -31.75 -2.96524 3
    endloop
  endfacet
  facet normal 0 0 1
    outer loop
      vertex -31.75 -3.25 3
      vertex -32.9369 -6.91144 3
      vertex -32.314 -6.99013 3
    endloop
  endfacet
  facet normal 0 0 1
    outer loop
      vertex -36.8429 -3.24345 3
      vertex -31.75 -2.96524 3
      vertex -33.462 0 3
    endloop
  endfacet
  facet normal 0 0 1
    outer loop
      vertex -31.75 -3.25 3
      vertex -33.5451 -6.75528 3
      vertex -32.9369 -6.91144 3
    endloop
  endfacet
  facet normal -0 0 1
    outer loop
      vertex -34.6791 6.22164 3
      vertex -31.75 3.25 3
      vertex -34.1289 6.52413 3
    endloop
  endfacet
  facet normal -0 0 1
    outer loop
      vertex -35.1871 5.85257 3
      vertex -31.75 3.25 3
      vertex -34.6791 6.22164 3
    endloop
  endfacet
  facet normal 0 0 1
    outer loop
      vertex -37 -2 3
      vertex -33.462 0 3
      vertex -37 2 3
    endloop
  endfacet
  facet normal -0 0 1
    outer loop
      vertex -35.6448 5.42274 3
      vertex -31.75 3.25 3
      vertex -35.1871 5.85257 3
    endloop
  endfacet
  facet normal 0 -0 1
    outer loop
      vertex -36.9606 -2.62667 3
      vertex -33.462 0 3
      vertex -37 -2 3
    endloop
  endfacet
  facet normal -0 0 1
    outer loop
      vertex -36.0451 4.93893 3
      vertex -31.75 3.25 3
      vertex -35.6448 5.42274 3
    endloop
  endfacet
  facet normal 0 0 1
    outer loop
      vertex -31.75 -3.25 3
      vertex -34.1289 -6.52413 3
      vertex -33.5451 -6.75528 3
    endloop
  endfacet
  facet normal -0 0 1
    outer loop
      vertex -36.3815 4.40877 3
      vertex -31.75 3.25 3
      vertex -36.0451 4.93893 3
    endloop
  endfacet
  facet normal 0 0 1
    outer loop
      vertex -31.75 -3.25 3
      vertex -34.6791 -6.22164 3
      vertex -34.1289 -6.52413 3
    endloop
  endfacet
  facet normal -0 0 1
    outer loop
      vertex -36.6489 3.84062 3
      vertex -31.75 3.25 3
      vertex -36.3815 4.40877 3
    endloop
  endfacet
  facet normal 0 0 1
    outer loop
      vertex -31.75 -3.25 3
      vertex -35.1871 -5.85257 3
      vertex -34.6791 -6.22164 3
    endloop
  endfacet
  facet normal 0 0 1
    outer loop
      vertex -36.8429 3.24345 3
      vertex -31.75 3.25 3
      vertex -36.6489 3.84062 3
    endloop
  endfacet
  facet normal 0 0 1
    outer loop
      vertex -31.75 -3.25 3
      vertex -35.6448 -5.42274 3
      vertex -35.1871 -5.85257 3
    endloop
  endfacet
  facet normal 0 0 1
    outer loop
      vertex -31.75 3.25 3
      vertex -36.8429 3.24345 3
      vertex -33.462 0 3
    endloop
  endfacet
  facet normal 0 0 1
    outer loop
      vertex -31.75 -3.25 3
      vertex -36.0451 -4.93893 3
      vertex -35.6448 -5.42274 3
    endloop
  endfacet
  facet normal -0 0 1
    outer loop
      vertex -36.9606 2.62667 3
      vertex -33.462 0 3
      vertex -36.8429 3.24345 3
    endloop
  endfacet
  facet normal 0 0 1
    outer loop
      vertex -31.75 -3.25 3
      vertex -36.3815 -4.40877 3
      vertex -36.0451 -4.93893 3
    endloop
  endfacet
  facet normal 0 0 1
    outer loop
      vertex -33.462 0 3
      vertex -36.9606 2.62667 3
      vertex -37 2 3
    endloop
  endfacet
  facet normal 0 0 1
    outer loop
      vertex -31.75 -2.96524 3
      vertex -36.6489 -3.84062 3
      vertex -36.3815 -4.40877 3
    endloop
  endfacet
  facet normal 0 0 1
    outer loop
      vertex -31.75 -2.96524 3
      vertex -36.8429 -3.24345 3
      vertex -36.6489 -3.84062 3
    endloop
  endfacet
  facet normal 0 0 1
    outer loop
      vertex -33.462 0 3
      vertex -36.9606 -2.62667 3
      vertex -36.8429 -3.24345 3
    endloop
  endfacet
  facet normal 0 0 1
    outer loop
      vertex 28.25 -2.96524 3
      vertex 26.538 0 3
      vertex 28.25 -3.25 3
    endloop
  endfacet
  facet normal 0 0 1
    outer loop
      vertex 32.314 6.99013 3
      vertex 28.25 3.25 3
      vertex 31.75 3.25 3
    endloop
  endfacet
  facet normal 0 0 1
    outer loop
      vertex 28.25 3.25 3
      vertex 26.538 0 3
      vertex 28.25 2.96524 3
    endloop
  endfacet
  facet normal 0 0 1
    outer loop
      vertex 28.25 3.25 3
      vertex -26.538 0 3
      vertex 26.538 0 3
    endloop
  endfacet
  facet normal 0 0 1
    outer loop
      vertex -28.25 3.25 3
      vertex 28.25 3.25 3
      vertex 32.314 6.99013 3
    endloop
  endfacet
  facet normal 0 0 1
    outer loop
      vertex 28.25 3.25 3
      vertex -28.25 3.25 3
      vertex -26.538 0 3
    endloop
  endfacet
  facet normal -0 0 1
    outer loop
      vertex -32.314 6.99013 3
      vertex -28.25 3.25 3
      vertex 32.314 6.99013 3
    endloop
  endfacet
  facet normal 0 0 1
    outer loop
      vertex -28.25 3.25 3
      vertex -32.314 6.99013 3
      vertex -31.75 3.25 3
    endloop
  endfacet
  facet normal -0 0 1
    outer loop
      vertex -32.9369 6.91144 3
      vertex -31.75 3.25 3
      vertex -32.314 6.99013 3
    endloop
  endfacet
  facet normal -0 0 1
    outer loop
      vertex -33.5451 6.75528 3
      vertex -31.75 3.25 3
      vertex -32.9369 6.91144 3
    endloop
  endfacet
  facet normal -0 0 1
    outer loop
      vertex -34.1289 6.52413 3
      vertex -31.75 3.25 3
      vertex -33.5451 6.75528 3
    endloop
  endfacet
  facet normal 0 0 1
    outer loop
      vertex -31.75 3.25 3
      vertex -33.462 0 3
      vertex -31.75 2.96524 3
    endloop
  endfacet
  facet normal 0 0 1
    outer loop
      vertex 33.462 0 3
      vertex 37 2 3
      vertex 36.9606 2.62667 3
    endloop
  endfacet
  facet normal 0 0 1
    outer loop
      vertex 37 2 3
      vertex 33.462 0 3
      vertex 37 -2 3
    endloop
  endfacet
  facet normal 0 0 1
    outer loop
      vertex 33.462 0 3
      vertex 36.9606 2.62667 3
      vertex 36.8429 3.24345 3
    endloop
  endfacet
  facet normal 0 0 1
    outer loop
      vertex 37 -2 3
      vertex 33.462 0 3
      vertex 36.9606 -2.62667 3
    endloop
  endfacet
  facet normal 0 0 1
    outer loop
      vertex 31.75 2.96524 3
      vertex 36.8429 3.24345 3
      vertex 36.6489 3.84062 3
    endloop
  endfacet
  facet normal 0 0 1
    outer loop
      vertex 36.9606 -2.62667 3
      vertex 33.462 0 3
      vertex 36.8429 -3.24345 3
    endloop
  endfacet
  facet normal 0 0 1
    outer loop
      vertex 31.75 2.96524 3
      vertex 36.6489 3.84062 3
      vertex 36.3815 4.40877 3
    endloop
  endfacet
  facet normal -0 0 1
    outer loop
      vertex 31.75 -2.96524 3
      vertex 36.8429 -3.24345 3
      vertex 33.462 0 3
    endloop
  endfacet
  facet normal 0 0 1
    outer loop
      vertex 31.75 3.25 3
      vertex 36.3815 4.40877 3
      vertex 36.0451 4.93893 3
    endloop
  endfacet
  facet normal 0 0 1
    outer loop
      vertex 36.8429 -3.24345 3
      vertex 31.75 -2.96524 3
      vertex 36.6489 -3.84062 3
    endloop
  endfacet
  facet normal 0 0 1
    outer loop
      vertex 31.75 3.25 3
      vertex 36.0451 4.93893 3
      vertex 35.6448 5.42274 3
    endloop
  endfacet
  facet normal 0 0 1
    outer loop
      vertex 36.6489 -3.84062 3
      vertex 31.75 -2.96524 3
      vertex 36.3815 -4.40877 3
    endloop
  endfacet
  facet normal 0 0 1
    outer loop
      vertex 31.75 3.25 3
      vertex 35.6448 5.42274 3
      vertex 35.1871 5.85257 3
    endloop
  endfacet
  facet normal -0 0 1
    outer loop
      vertex 31.75 -3.25 3
      vertex 36.3815 -4.40877 3
      vertex 31.75 -2.96524 3
    endloop
  endfacet
  facet normal 0 0 1
    outer loop
      vertex 31.75 3.25 3
      vertex 35.1871 5.85257 3
      vertex 34.6791 6.22164 3
    endloop
  endfacet
  facet normal 0 0 1
    outer loop
      vertex 36.3815 -4.40877 3
      vertex 31.75 -3.25 3
      vertex 36.0451 -4.93893 3
    endloop
  endfacet
  facet normal 0 0 1
    outer loop
      vertex 31.75 3.25 3
      vertex 34.6791 6.22164 3
      vertex 34.1289 6.52413 3
    endloop
  endfacet
  facet normal 0 0 1
    outer loop
      vertex 36.0451 -4.93893 3
      vertex 31.75 -3.25 3
      vertex 35.6448 -5.42274 3
    endloop
  endfacet
  facet normal 0 0 1
    outer loop
      vertex 31.75 3.25 3
      vertex 34.1289 6.52413 3
      vertex 33.5451 6.75528 3
    endloop
  endfacet
  facet normal 0 0 1
    outer loop
      vertex 35.6448 -5.42274 3
      vertex 31.75 -3.25 3
      vertex 35.1871 -5.85257 3
    endloop
  endfacet
  facet normal 0 0 1
    outer loop
      vertex 34.6791 -6.22164 3
      vertex 31.75 -3.25 3
      vertex 34.1289 -6.52413 3
    endloop
  endfacet
  facet normal 0 0 1
    outer loop
      vertex 31.75 3.25 3
      vertex 33.5451 6.75528 3
      vertex 32.9369 6.91144 3
    endloop
  endfacet
  facet normal 0 0 1
    outer loop
      vertex 31.75 3.25 3
      vertex 32.9369 6.91144 3
      vertex 32.314 6.99013 3
    endloop
  endfacet
  facet normal 0 0 1
    outer loop
      vertex 36.3815 4.40877 3
      vertex 31.75 3.25 3
      vertex 31.75 2.96524 3
    endloop
  endfacet
  facet normal 0 0 1
    outer loop
      vertex 36.8429 3.24345 3
      vertex 31.75 2.96524 3
      vertex 33.462 0 3
    endloop
  endfacet
  facet normal 0 0 1
    outer loop
      vertex 34.1289 -6.52413 3
      vertex 31.75 -3.25 3
      vertex 33.5451 -6.75528 3
    endloop
  endfacet
  facet normal 0 0 1
    outer loop
      vertex 33.5451 -6.75528 3
      vertex 31.75 -3.25 3
      vertex 32.9369 -6.91144 3
    endloop
  endfacet
  facet normal 0 0 1
    outer loop
      vertex 35.1871 -5.85257 3
      vertex 31.75 -3.25 3
      vertex 34.6791 -6.22164 3
    endloop
  endfacet
  facet normal 0 0 1
    outer loop
      vertex 32.9369 -6.91144 3
      vertex 31.75 -3.25 3
      vertex 32.314 -6.99013 3
    endloop
  endfacet
  facet normal -0 0 1
    outer loop
      vertex 28.25 -3.25 3
      vertex 32.314 -6.99013 3
      vertex 31.75 -3.25 3
    endloop
  endfacet
  facet normal -0 0 1
    outer loop
      vertex -26.538 0 3
      vertex 28.25 -3.25 3
      vertex 26.538 0 3
    endloop
  endfacet
  facet normal 0 0 1
    outer loop
      vertex -28.25 -3.25 3
      vertex 28.25 -3.25 3
      vertex -26.538 0 3
    endloop
  endfacet
  facet normal 0 0 1
    outer loop
      vertex -28.25 -3.25 3
      vertex -26.538 0 3
      vertex -28.25 -2.96524 3
    endloop
  endfacet
  facet normal 0 0 1
    outer loop
      vertex 28.25 -3.25 3
      vertex -28.25 -3.25 3
      vertex 32.314 -6.99013 3
    endloop
  endfacet
  facet normal 0 0 1
    outer loop
      vertex -32.314 -6.99013 3
      vertex -28.25 -3.25 3
      vertex -31.75 -3.25 3
    endloop
  endfacet
  facet normal 0 0 1
    outer loop
      vertex -28.25 -3.25 3
      vertex -32.314 -6.99013 3
      vertex 32.314 -6.99013 3
    endloop
  endfacet
  facet normal 0 0 1
    outer loop
      vertex -26.538 0 3
      vertex -28.25 3.25 3
      vertex -28.25 2.96524 3
    endloop
  endfacet
  facet normal -0 0 1
    outer loop
      vertex -28.269 -2.99817 3
      vertex -28.25 -3.25 3
      vertex -28.25 -2.96524 3
    endloop
  endfacet
  facet normal -0 0 1
    outer loop
      vertex -31.731 -2.99817 3
      vertex -28.25 -3.25 3
      vertex -28.269 -2.99817 3
    endloop
  endfacet
  facet normal 0 0 1
    outer loop
      vertex -31.731 -2.99817 3
      vertex -31.75 -3.25 3
      vertex -28.25 -3.25 3
    endloop
  endfacet
  facet normal 0 0 1
    outer loop
      vertex -31.75 -3.25 3
      vertex -31.731 -2.99817 3
      vertex -31.75 -2.96524 3
    endloop
  endfacet
  facet normal 0 0 1
    outer loop
      vertex -28.25 3.25 3
      vertex -28.269 2.99817 3
      vertex -28.25 2.96524 3
    endloop
  endfacet
  facet normal 0 0 1
    outer loop
      vertex -28.25 3.25 3
      vertex -31.731 2.99817 3
      vertex -28.269 2.99817 3
    endloop
  endfacet
  facet normal -0 0 1
    outer loop
      vertex -31.75 3.25 3
      vertex -31.731 2.99817 3
      vertex -28.25 3.25 3
    endloop
  endfacet
  facet normal 0 0 1
    outer loop
      vertex -31.731 2.99817 3
      vertex -31.75 3.25 3
      vertex -31.75 2.96524 3
    endloop
  endfacet
  facet normal -0 0 1
    outer loop
      vertex 31.731 -2.99817 3
      vertex 31.75 -3.25 3
      vertex 31.75 -2.96524 3
    endloop
  endfacet
  facet normal -0 0 1
    outer loop
      vertex 28.269 -2.99817 3
      vertex 31.75 -3.25 3
      vertex 31.731 -2.99817 3
    endloop
  endfacet
  facet normal 0 0 1
    outer loop
      vertex 28.269 -2.99817 3
      vertex 28.25 -3.25 3
      vertex 31.75 -3.25 3
    endloop
  endfacet
  facet normal 0 0 1
    outer loop
      vertex 28.25 -3.25 3
      vertex 28.269 -2.99817 3
      vertex 28.25 -2.96524 3
    endloop
  endfacet
  facet normal 0 0 1
    outer loop
      vertex 31.75 3.25 3
      vertex 31.731 2.99817 3
      vertex 31.75 2.96524 3
    endloop
  endfacet
  facet normal 0 0 1
    outer loop
      vertex 31.75 3.25 3
      vertex 28.269 2.99817 3
      vertex 31.731 2.99817 3
    endloop
  endfacet
  facet normal -0 0 1
    outer loop
      vertex 28.25 3.25 3
      vertex 28.269 2.99817 3
      vertex 31.75 3.25 3
    endloop
  endfacet
  facet normal 0 0 1
    outer loop
      vertex 28.269 2.99817 3
      vertex 28.25 3.25 3
      vertex 28.25 2.96524 3
    endloop
  endfacet
  facet normal -1 0 0
    outer loop
      vertex 31.75 -1.75 0.200001
      vertex 31.75 -0.413301 0
      vertex 31.75 -1.75 0
    endloop
  endfacet
  facet normal -1 0 0
    outer loop
      vertex 31.75 -0.413301 0
      vertex 31.75 -1.75 0.200001
      vertex 31.75 -0.413301 0.5
    endloop
  endfacet
  facet normal -1 0 0
    outer loop
      vertex 31.75 -1.75 0.200001
      vertex 31.75 -2.96524 0.5
      vertex 31.75 -0.413301 0.5
    endloop
  endfacet
  facet normal -1 0 0
    outer loop
      vertex 31.75 -3.25 0.200001
      vertex 31.75 -2.96524 0.5
      vertex 31.75 -1.75 0.200001
    endloop
  endfacet
  facet normal -1 -0 0
    outer loop
      vertex 31.75 -2.96524 0.5
      vertex 31.75 -3.25 0.200001
      vertex 31.75 -3.25 0.5
    endloop
  endfacet
  facet normal -1 0 0
    outer loop
      vertex 31.75 1.75 0
      vertex 31.75 0.413301 0
      vertex 31.75 1.75 0.200001
    endloop
  endfacet
  facet normal -1 0 0
    outer loop
      vertex 31.75 3.25 0.200001
      vertex 31.75 2.96524 0.5
      vertex 31.75 3.25 0.5
    endloop
  endfacet
  facet normal -1 0 0
    outer loop
      vertex 31.75 1.75 0.200001
      vertex 31.75 2.96524 0.5
      vertex 31.75 3.25 0.200001
    endloop
  endfacet
  facet normal -1 0 0
    outer loop
      vertex 31.75 0.413301 0.5
      vertex 31.75 1.75 0.200001
      vertex 31.75 0.413301 0
    endloop
  endfacet
  facet normal -1 0 0
    outer loop
      vertex 31.75 1.75 0.200001
      vertex 31.75 0.413301 0.5
      vertex 31.75 2.96524 0.5
    endloop
  endfacet
  facet normal -0 0 1
    outer loop
      vertex 30.4078 -1.75 0.200001
      vertex 31.75 -3.25 0.200001
      vertex 31.75 -1.75 0.200001
    endloop
  endfacet
  facet normal -0 0 1
    outer loop
      vertex 30.3373 -1.76812 0.200001
      vertex 31.75 -3.25 0.200001
      vertex 30.4078 -1.75 0.200001
    endloop
  endfacet
  facet normal -0 0 1
    outer loop
      vertex 30.113 -1.79645 0.200001
      vertex 31.75 -3.25 0.200001
      vertex 30.3373 -1.76812 0.200001
    endloop
  endfacet
  facet normal -0 0 1
    outer loop
      vertex 29.887 -1.79645 0.200001
      vertex 31.75 -3.25 0.200001
      vertex 30.113 -1.79645 0.200001
    endloop
  endfacet
  facet normal 0 0 1
    outer loop
      vertex 28.25 -3.25 0.200001
      vertex 29.887 -1.79645 0.200001
      vertex 29.6627 -1.76812 0.200001
    endloop
  endfacet
  facet normal 0 0 1
    outer loop
      vertex 28.25 -3.25 0.200001
      vertex 29.6627 -1.76812 0.200001
      vertex 29.5922 -1.75 0.200001
    endloop
  endfacet
  facet normal 0 0 1
    outer loop
      vertex 28.25 -3.25 0.200001
      vertex 29.5922 -1.75 0.200001
      vertex 28.25 -1.75 0.200001
    endloop
  endfacet
  facet normal 0 0 1
    outer loop
      vertex 29.887 -1.79645 0.200001
      vertex 28.25 -3.25 0.200001
      vertex 31.75 -3.25 0.200001
    endloop
  endfacet
  facet normal 0 0 1
    outer loop
      vertex 31.75 3.25 0.200001
      vertex 30.4078 1.75 0.200001
      vertex 31.75 1.75 0.200001
    endloop
  endfacet
  facet normal 0 0 1
    outer loop
      vertex 31.75 3.25 0.200001
      vertex 30.3373 1.76812 0.200001
      vertex 30.4078 1.75 0.200001
    endloop
  endfacet
  facet normal 0 0 1
    outer loop
      vertex 31.75 3.25 0.200001
      vertex 30.113 1.79645 0.200001
      vertex 30.3373 1.76812 0.200001
    endloop
  endfacet
  facet normal 0 0 1
    outer loop
      vertex 31.75 3.25 0.200001
      vertex 29.887 1.79645 0.200001
      vertex 30.113 1.79645 0.200001
    endloop
  endfacet
  facet normal -0 0 1
    outer loop
      vertex 28.25 3.25 0.200001
      vertex 29.887 1.79645 0.200001
      vertex 31.75 3.25 0.200001
    endloop
  endfacet
  facet normal 0 0 1
    outer loop
      vertex 29.887 1.79645 0.200001
      vertex 28.25 3.25 0.200001
      vertex 29.6627 1.76812 0.200001
    endloop
  endfacet
  facet normal 0 0 1
    outer loop
      vertex 29.6627 1.76812 0.200001
      vertex 28.25 3.25 0.200001
      vertex 29.5922 1.75 0.200001
    endloop
  endfacet
  facet normal 0 0 1
    outer loop
      vertex 29.5922 1.75 0.200001
      vertex 28.25 3.25 0.200001
      vertex 28.25 1.75 0.200001
    endloop
  endfacet
  facet normal 1 0 0
    outer loop
      vertex 28.25 -0.413306 0.5
      vertex 28.25 -1.75 0.200001
      vertex 28.25 -0.413306 0
    endloop
  endfacet
  facet normal 1 -0 0
    outer loop
      vertex 28.25 -2.96524 0.5
      vertex 28.25 -1.75 0.200001
      vertex 28.25 -0.413306 0.5
    endloop
  endfacet
  facet normal 1 0 0
    outer loop
      vertex 28.25 -3.25 0.200001
      vertex 28.25 -2.96524 0.5
      vertex 28.25 -3.25 0.5
    endloop
  endfacet
  facet normal 1 0 0
    outer loop
      vertex 28.25 -2.96524 0.5
      vertex 28.25 -3.25 0.200001
      vertex 28.25 -1.75 0.200001
    endloop
  endfacet
  facet normal 1 0 0
    outer loop
      vertex 28.25 -0.413306 0
      vertex 28.25 -1.75 0.200001
      vertex 28.25 -1.75 0
    endloop
  endfacet
  facet normal 1 -0 0
    outer loop
      vertex 28.25 2.96524 0.5
      vertex 28.25 3.25 0.200001
      vertex 28.25 3.25 0.5
    endloop
  endfacet
  facet normal 1 0 0
    outer loop
      vertex 28.25 2.96524 0.5
      vertex 28.25 1.75 0.200001
      vertex 28.25 3.25 0.200001
    endloop
  endfacet
  facet normal 1 -0 0
    outer loop
      vertex 28.25 0.413306 0.5
      vertex 28.25 1.75 0.200001
      vertex 28.25 2.96524 0.5
    endloop
  endfacet
  facet normal 1 0 0
    outer loop
      vertex 28.25 0.413306 0
      vertex 28.25 1.75 0.200001
      vertex 28.25 0.413306 0.5
    endloop
  endfacet
  facet normal 1 0 0
    outer loop
      vertex 28.25 1.75 0.200001
      vertex 28.25 0.413306 0
      vertex 28.25 1.75 0
    endloop
  endfacet
  facet normal 0 -1 0
    outer loop
      vertex 28.25 3.25 0.200001
      vertex 31.75 3.25 0.5
      vertex 28.25 3.25 0.5
    endloop
  endfacet
  facet normal 0 -1 -0
    outer loop
      vertex 31.75 3.25 0.5
      vertex 28.25 3.25 0.200001
      vertex 31.75 3.25 0.200001
    endloop
  endfacet
  facet normal 0 0 1
    outer loop
      vertex 26.538 0 0.5
      vertex 28.25 0.413306 0.5
      vertex 28.25 2.96524 0.5
    endloop
  endfacet
  facet normal 0 0 1
    outer loop
      vertex 28.25 0.413306 0.5
      vertex 26.538 0 0.5
      vertex 28.2142 0.225599 0.5
    endloop
  endfacet
  facet normal 0 0 1
    outer loop
      vertex 28.2142 0.225599 0.5
      vertex 26.538 0 0.5
      vertex 28.2 0 0.5
    endloop
  endfacet
  facet normal 0 0 1
    outer loop
      vertex 26.538 0 0.5
      vertex 28.25 -0.413306 0.5
      vertex 28.2142 -0.225599 0.5
    endloop
  endfacet
  facet normal -0 0 1
    outer loop
      vertex 26.538 0 0.5
      vertex 28.2142 -0.225599 0.5
      vertex 28.2 0 0.5
    endloop
  endfacet
  facet normal 0 0 1
    outer loop
      vertex 28.25 -0.413306 0.5
      vertex 26.538 0 0.5
      vertex 28.25 -2.96524 0.5
    endloop
  endfacet
  facet normal 0 0 1
    outer loop
      vertex 33.462 0 0.5
      vertex 31.7858 0.225599 0.5
      vertex 31.8 0 0.5
    endloop
  endfacet
  facet normal -0 0 1
    outer loop
      vertex 31.75 0.413301 0.5
      vertex 33.462 0 0.5
      vertex 31.75 2.96524 0.5
    endloop
  endfacet
  facet normal 0 0 1
    outer loop
      vertex 33.462 0 0.5
      vertex 31.75 0.413301 0.5
      vertex 31.7858 0.225599 0.5
    endloop
  endfacet
  facet normal 0 0 1
    outer loop
      vertex 31.7858 -0.225599 0.5
      vertex 33.462 0 0.5
      vertex 31.8 0 0.5
    endloop
  endfacet
  facet normal 0 0 1
    outer loop
      vertex 31.75 -0.413301 0.5
      vertex 33.462 0 0.5
      vertex 31.7858 -0.225599 0.5
    endloop
  endfacet
  facet normal 0 0 1
    outer loop
      vertex 33.462 0 0.5
      vertex 31.75 -0.413301 0.5
      vertex 31.75 -2.96524 0.5
    endloop
  endfacet
  facet normal 0 0 -1
    outer loop
      vertex 31.75 -3.25 0.5
      vertex 31.731 -2.99817 0.5
      vertex 31.75 -2.96524 0.5
    endloop
  endfacet
  facet normal 0 0 -1
    outer loop
      vertex 31.75 -3.25 0.5
      vertex 28.269 -2.99817 0.5
      vertex 31.731 -2.99817 0.5
    endloop
  endfacet
  facet normal 0 0 -1
    outer loop
      vertex 28.25 -3.25 0.5
      vertex 28.269 -2.99817 0.5
      vertex 31.75 -3.25 0.5
    endloop
  endfacet
  facet normal -0 0 -1
    outer loop
      vertex 28.269 -2.99817 0.5
      vertex 28.25 -3.25 0.5
      vertex 28.25 -2.96524 0.5
    endloop
  endfacet
  facet normal 0 0 -1
    outer loop
      vertex 31.731 2.99817 0.5
      vertex 31.75 3.25 0.5
      vertex 31.75 2.96524 0.5
    endloop
  endfacet
  facet normal 0 0 -1
    outer loop
      vertex 28.269 2.99817 0.5
      vertex 31.75 3.25 0.5
      vertex 31.731 2.99817 0.5
    endloop
  endfacet
  facet normal 0 0 -1
    outer loop
      vertex 28.269 2.99817 0.5
      vertex 28.25 3.25 0.5
      vertex 31.75 3.25 0.5
    endloop
  endfacet
  facet normal 0 0 -1
    outer loop
      vertex 28.25 3.25 0.5
      vertex 28.269 2.99817 0.5
      vertex 28.25 2.96524 0.5
    endloop
  endfacet
  facet normal 0 1 -0
    outer loop
      vertex 31.75 -3.25 0.200001
      vertex 28.25 -3.25 0.5
      vertex 31.75 -3.25 0.5
    endloop
  endfacet
  facet normal 0 1 0
    outer loop
      vertex 28.25 -3.25 0.5
      vertex 31.75 -3.25 0.200001
      vertex 28.25 -3.25 0.200001
    endloop
  endfacet
  facet normal 0 -1 0
    outer loop
      vertex 28.25 1.75 0
      vertex 29.5922 1.75 0.200001
      vertex 28.25 1.75 0.200001
    endloop
  endfacet
  facet normal 0 -1 -0
    outer loop
      vertex 29.5922 1.75 0.200001
      vertex 28.25 1.75 0
      vertex 29.5922 1.75 0
    endloop
  endfacet
  facet normal 0 -1 0
    outer loop
      vertex 30.4078 1.75 0
      vertex 31.75 1.75 0.200001
      vertex 30.4078 1.75 0.200001
    endloop
  endfacet
  facet normal 0 -1 -0
    outer loop
      vertex 31.75 1.75 0.200001
      vertex 30.4078 1.75 0
      vertex 31.75 1.75 0
    endloop
  endfacet
  facet normal 0 1 -0
    outer loop
      vertex 29.5922 -1.75 0
      vertex 28.25 -1.75 0.200001
      vertex 29.5922 -1.75 0.200001
    endloop
  endfacet
  facet normal 0 1 0
    outer loop
      vertex 28.25 -1.75 0.200001
      vertex 29.5922 -1.75 0
      vertex 28.25 -1.75 0
    endloop
  endfacet
  facet normal 0 1 -0
    outer loop
      vertex 31.75 -1.75 0
      vertex 30.4078 -1.75 0.200001
      vertex 31.75 -1.75 0.200001
    endloop
  endfacet
  facet normal 0 1 0
    outer loop
      vertex 30.4078 -1.75 0.200001
      vertex 31.75 -1.75 0
      vertex 30.4078 -1.75 0
    endloop
  endfacet
  facet normal 0.866023 0.500004 0
    outer loop
      vertex 28.25 -2.96524 3
      vertex 26.538 0 0.5
      vertex 26.538 0 3
    endloop
  endfacet
  facet normal 0.866023 0.500004 0
    outer loop
      vertex 28.25 -2.96524 3
      vertex 28.25 -2.96524 0.5
      vertex 26.538 0 0.5
    endloop
  endfacet
  facet normal 0.866164 0.49976 0
    outer loop
      vertex 28.269 -2.99817 3
      vertex 28.25 -2.96524 0.5
      vertex 28.25 -2.96524 3
    endloop
  endfacet
  facet normal 0.866164 0.49976 0
    outer loop
      vertex 28.25 -2.96524 0.5
      vertex 28.269 -2.99817 3
      vertex 28.269 -2.99817 0.5
    endloop
  endfacet
  facet normal 0.866164 -0.49976 0
    outer loop
      vertex 28.25 2.96524 3
      vertex 28.269 2.99817 0.5
      vertex 28.269 2.99817 3
    endloop
  endfacet
  facet normal 0.866164 -0.49976 0
    outer loop
      vertex 28.25 2.96524 3
      vertex 28.25 2.96524 0.5
      vertex 28.269 2.99817 0.5
    endloop
  endfacet
  facet normal 0.866023 -0.500004 0
    outer loop
      vertex 26.538 0 3
      vertex 28.25 2.96524 0.5
      vertex 28.25 2.96524 3
    endloop
  endfacet
  facet normal 0.866023 -0.500004 0
    outer loop
      vertex 28.25 2.96524 0.5
      vertex 26.538 0 3
      vertex 26.538 0 0.5
    endloop
  endfacet
  facet normal -0.866023 0.500004 0
    outer loop
      vertex 31.75 -2.96524 0.5
      vertex 33.462 0 3
      vertex 33.462 0 0.5
    endloop
  endfacet
  facet normal -0.866023 0.500004 0
    outer loop
      vertex 31.75 -2.96524 0.5
      vertex 31.75 -2.96524 3
      vertex 33.462 0 3
    endloop
  endfacet
  facet normal -0.866164 0.49976 0
    outer loop
      vertex 31.731 -2.99817 0.5
      vertex 31.75 -2.96524 3
      vertex 31.75 -2.96524 0.5
    endloop
  endfacet
  facet normal -0.866164 0.49976 0
    outer loop
      vertex 31.75 -2.96524 3
      vertex 31.731 -2.99817 0.5
      vertex 31.731 -2.99817 3
    endloop
  endfacet
  facet normal 0 1 -0
    outer loop
      vertex 31.731 -2.99817 0.5
      vertex 28.269 -2.99817 3
      vertex 31.731 -2.99817 3
    endloop
  endfacet
  facet normal 0 1 0
    outer loop
      vertex 28.269 -2.99817 3
      vertex 31.731 -2.99817 0.5
      vertex 28.269 -2.99817 0.5
    endloop
  endfacet
  facet normal -0.866164 -0.49976 0
    outer loop
      vertex 31.75 2.96524 0.5
      vertex 31.731 2.99817 3
      vertex 31.731 2.99817 0.5
    endloop
  endfacet
  facet normal -0.866164 -0.49976 0
    outer loop
      vertex 31.75 2.96524 0.5
      vertex 31.75 2.96524 3
      vertex 31.731 2.99817 3
    endloop
  endfacet
  facet normal -0.866023 -0.500004 0
    outer loop
      vertex 33.462 0 0.5
      vertex 31.75 2.96524 3
      vertex 31.75 2.96524 0.5
    endloop
  endfacet
  facet normal -0.866023 -0.500004 0
    outer loop
      vertex 31.75 2.96524 3
      vertex 33.462 0 0.5
      vertex 33.462 0 3
    endloop
  endfacet
  facet normal 0 -1 0
    outer loop
      vertex 28.269 2.99817 0.5
      vertex 31.731 2.99817 3
      vertex 28.269 2.99817 3
    endloop
  endfacet
  facet normal 0 -1 -0
    outer loop
      vertex 31.731 2.99817 3
      vertex 28.269 2.99817 0.5
      vertex 31.731 2.99817 0.5
    endloop
  endfacet
  facet normal -0.982293 -0.187351 0
    outer loop
      vertex 31.7858 0.225599 0
      vertex 31.75 0.413301 0.5
      vertex 31.75 0.413301 0
    endloop
  endfacet
  facet normal -0.982293 -0.187351 0
    outer loop
      vertex 31.75 0.413301 0.5
      vertex 31.7858 0.225599 0
      vertex 31.7858 0.225599 0.5
    endloop
  endfacet
  facet normal -0.248931 -0.968521 0
    outer loop
      vertex 30.3373 1.76812 0
      vertex 30.4078 1.75 0.200001
      vertex 30.3373 1.76812 0.200001
    endloop
  endfacet
  facet normal -0.248931 -0.968521 -0
    outer loop
      vertex 30.4078 1.75 0.200001
      vertex 30.3373 1.76812 0
      vertex 30.4078 1.75 0
    endloop
  endfacet
  facet normal 0 -1 0
    outer loop
      vertex 29.887 1.79645 0
      vertex 30.113 1.79645 0.200001
      vertex 29.887 1.79645 0.200001
    endloop
  endfacet
  facet normal 0 -1 -0
    outer loop
      vertex 30.113 1.79645 0.200001
      vertex 29.887 1.79645 0
      vertex 30.113 1.79645 0
    endloop
  endfacet
  facet normal -0.998025 -0.0628192 0
    outer loop
      vertex 31.8 0 0
      vertex 31.7858 0.225599 0.5
      vertex 31.7858 0.225599 0
    endloop
  endfacet
  facet normal -0.998025 -0.0628192 0
    outer loop
      vertex 31.7858 0.225599 0.5
      vertex 31.8 0 0
      vertex 31.8 0 0.5
    endloop
  endfacet
  facet normal -0.125309 -0.992118 0
    outer loop
      vertex 30.113 1.79645 0
      vertex 30.3373 1.76812 0.200001
      vertex 30.113 1.79645 0.200001
    endloop
  endfacet
  facet normal -0.125309 -0.992118 -0
    outer loop
      vertex 30.3373 1.76812 0.200001
      vertex 30.113 1.79645 0
      vertex 30.3373 1.76812 0
    endloop
  endfacet
  facet normal -0.248931 0.968521 0
    outer loop
      vertex 30.4078 -1.75 0
      vertex 30.3373 -1.76812 0.200001
      vertex 30.4078 -1.75 0.200001
    endloop
  endfacet
  facet normal -0.248931 0.968521 0
    outer loop
      vertex 30.3373 -1.76812 0.200001
      vertex 30.4078 -1.75 0
      vertex 30.3373 -1.76812 0
    endloop
  endfacet
  facet normal -0.998025 0.0628192 0
    outer loop
      vertex 31.7858 -0.225599 0
      vertex 31.8 0 0.5
      vertex 31.8 0 0
    endloop
  endfacet
  facet normal -0.998025 0.0628192 0
    outer loop
      vertex 31.8 0 0.5
      vertex 31.7858 -0.225599 0
      vertex 31.7858 -0.225599 0.5
    endloop
  endfacet
  facet normal 0 1 -0
    outer loop
      vertex 30.113 -1.79645 0
      vertex 29.887 -1.79645 0.200001
      vertex 30.113 -1.79645 0.200001
    endloop
  endfacet
  facet normal 0 1 0
    outer loop
      vertex 29.887 -1.79645 0.200001
      vertex 30.113 -1.79645 0
      vertex 29.887 -1.79645 0
    endloop
  endfacet
  facet normal -0.982293 0.187351 0
    outer loop
      vertex 31.75 -0.413301 0
      vertex 31.7858 -0.225599 0.5
      vertex 31.7858 -0.225599 0
    endloop
  endfacet
  facet normal -0.982293 0.187351 0
    outer loop
      vertex 31.7858 -0.225599 0.5
      vertex 31.75 -0.413301 0
      vertex 31.75 -0.413301 0.5
    endloop
  endfacet
  facet normal -0.125309 0.992118 0
    outer loop
      vertex 30.3373 -1.76812 0
      vertex 30.113 -1.79645 0.200001
      vertex 30.3373 -1.76812 0.200001
    endloop
  endfacet
  facet normal -0.125309 0.992118 0
    outer loop
      vertex 30.113 -1.79645 0.200001
      vertex 30.3373 -1.76812 0
      vertex 30.113 -1.79645 0
    endloop
  endfacet
  facet normal -1 0 0
    outer loop
      vertex -28.25 -1.75 0.200001
      vertex -28.25 -0.413306 0
      vertex -28.25 -1.75 0
    endloop
  endfacet
  facet normal -1 0 0
    outer loop
      vertex -28.25 -0.413306 0
      vertex -28.25 -1.75 0.200001
      vertex -28.25 -0.413306 0.5
    endloop
  endfacet
  facet normal -1 0 0
    outer loop
      vertex -28.25 -1.75 0.200001
      vertex -28.25 -2.96524 0.5
      vertex -28.25 -0.413306 0.5
    endloop
  endfacet
  facet normal -1 0 0
    outer loop
      vertex -28.25 -3.25 0.200001
      vertex -28.25 -2.96524 0.5
      vertex -28.25 -1.75 0.200001
    endloop
  endfacet
  facet normal -1 -0 0
    outer loop
      vertex -28.25 -2.96524 0.5
      vertex -28.25 -3.25 0.200001
      vertex -28.25 -3.25 0.5
    endloop
  endfacet
  facet normal -1 0 0
    outer loop
      vertex -28.25 1.75 0
      vertex -28.25 0.413306 0
      vertex -28.25 1.75 0.200001
    endloop
  endfacet
  facet normal -1 0 0
    outer loop
      vertex -28.25 3.25 0.200001
      vertex -28.25 2.96524 0.5
      vertex -28.25 3.25 0.5
    endloop
  endfacet
  facet normal -1 0 0
    outer loop
      vertex -28.25 1.75 0.200001
      vertex -28.25 2.96524 0.5
      vertex -28.25 3.25 0.200001
    endloop
  endfacet
  facet normal -1 0 0
    outer loop
      vertex -28.25 0.413306 0.5
      vertex -28.25 1.75 0.200001
      vertex -28.25 0.413306 0
    endloop
  endfacet
  facet normal -1 0 0
    outer loop
      vertex -28.25 1.75 0.200001
      vertex -28.25 0.413306 0.5
      vertex -28.25 2.96524 0.5
    endloop
  endfacet
  facet normal -0 0 1
    outer loop
      vertex -29.5922 -1.75 0.200001
      vertex -28.25 -3.25 0.200001
      vertex -28.25 -1.75 0.200001
    endloop
  endfacet
  facet normal -0 0 1
    outer loop
      vertex -29.6627 -1.76812 0.200001
      vertex -28.25 -3.25 0.200001
      vertex -29.5922 -1.75 0.200001
    endloop
  endfacet
  facet normal -0 0 1
    outer loop
      vertex -29.887 -1.79645 0.200001
      vertex -28.25 -3.25 0.200001
      vertex -29.6627 -1.76812 0.200001
    endloop
  endfacet
  facet normal -0 0 1
    outer loop
      vertex -30.113 -1.79645 0.200001
      vertex -28.25 -3.25 0.200001
      vertex -29.887 -1.79645 0.200001
    endloop
  endfacet
  facet normal 0 0 1
    outer loop
      vertex -31.75 -3.25 0.200001
      vertex -30.113 -1.79645 0.200001
      vertex -30.3373 -1.76812 0.200001
    endloop
  endfacet
  facet normal 0 0 1
    outer loop
      vertex -31.75 -3.25 0.200001
      vertex -30.3373 -1.76812 0.200001
      vertex -30.4078 -1.75 0.200001
    endloop
  endfacet
  facet normal 0 0 1
    outer loop
      vertex -31.75 -3.25 0.200001
      vertex -30.4078 -1.75 0.200001
      vertex -31.75 -1.75 0.200001
    endloop
  endfacet
  facet normal 0 0 1
    outer loop
      vertex -30.113 -1.79645 0.200001
      vertex -31.75 -3.25 0.200001
      vertex -28.25 -3.25 0.200001
    endloop
  endfacet
  facet normal 0 0 1
    outer loop
      vertex -28.25 3.25 0.200001
      vertex -29.5922 1.75 0.200001
      vertex -28.25 1.75 0.200001
    endloop
  endfacet
  facet normal 0 0 1
    outer loop
      vertex -28.25 3.25 0.200001
      vertex -29.6627 1.76812 0.200001
      vertex -29.5922 1.75 0.200001
    endloop
  endfacet
  facet normal 0 0 1
    outer loop
      vertex -28.25 3.25 0.200001
      vertex -29.887 1.79645 0.200001
      vertex -29.6627 1.76812 0.200001
    endloop
  endfacet
  facet normal 0 0 1
    outer loop
      vertex -28.25 3.25 0.200001
      vertex -30.113 1.79645 0.200001
      vertex -29.887 1.79645 0.200001
    endloop
  endfacet
  facet normal -0 0 1
    outer loop
      vertex -31.75 3.25 0.200001
      vertex -30.113 1.79645 0.200001
      vertex -28.25 3.25 0.200001
    endloop
  endfacet
  facet normal 0 0 1
    outer loop
      vertex -30.113 1.79645 0.200001
      vertex -31.75 3.25 0.200001
      vertex -30.3373 1.76812 0.200001
    endloop
  endfacet
  facet normal 0 0 1
    outer loop
      vertex -30.3373 1.76812 0.200001
      vertex -31.75 3.25 0.200001
      vertex -30.4078 1.75 0.200001
    endloop
  endfacet
  facet normal 0 0 1
    outer loop
      vertex -30.4078 1.75 0.200001
      vertex -31.75 3.25 0.200001
      vertex -31.75 1.75 0.200001
    endloop
  endfacet
  facet normal 1 0 0
    outer loop
      vertex -31.75 -0.413301 0.5
      vertex -31.75 -1.75 0.200001
      vertex -31.75 -0.413301 0
    endloop
  endfacet
  facet normal 1 -0 0
    outer loop
      vertex -31.75 -2.96524 0.5
      vertex -31.75 -1.75 0.200001
      vertex -31.75 -0.413301 0.5
    endloop
  endfacet
  facet normal 1 0 0
    outer loop
      vertex -31.75 -3.25 0.200001
      vertex -31.75 -2.96524 0.5
      vertex -31.75 -3.25 0.5
    endloop
  endfacet
  facet normal 1 0 0
    outer loop
      vertex -31.75 -2.96524 0.5
      vertex -31.75 -3.25 0.200001
      vertex -31.75 -1.75 0.200001
    endloop
  endfacet
  facet normal 1 0 0
    outer loop
      vertex -31.75 -0.413301 0
      vertex -31.75 -1.75 0.200001
      vertex -31.75 -1.75 0
    endloop
  endfacet
  facet normal 1 -0 0
    outer loop
      vertex -31.75 2.96524 0.5
      vertex -31.75 3.25 0.200001
      vertex -31.75 3.25 0.5
    endloop
  endfacet
  facet normal 1 0 0
    outer loop
      vertex -31.75 2.96524 0.5
      vertex -31.75 1.75 0.200001
      vertex -31.75 3.25 0.200001
    endloop
  endfacet
  facet normal 1 -0 0
    outer loop
      vertex -31.75 0.413301 0.5
      vertex -31.75 1.75 0.200001
      vertex -31.75 2.96524 0.5
    endloop
  endfacet
  facet normal 1 0 0
    outer loop
      vertex -31.75 0.413301 0
      vertex -31.75 1.75 0.200001
      vertex -31.75 0.413301 0.5
    endloop
  endfacet
  facet normal 1 0 0
    outer loop
      vertex -31.75 1.75 0.200001
      vertex -31.75 0.413301 0
      vertex -31.75 1.75 0
    endloop
  endfacet
  facet normal 0 -1 0
    outer loop
      vertex -31.75 3.25 0.200001
      vertex -28.25 3.25 0.5
      vertex -31.75 3.25 0.5
    endloop
  endfacet
  facet normal 0 -1 -0
    outer loop
      vertex -28.25 3.25 0.5
      vertex -31.75 3.25 0.200001
      vertex -28.25 3.25 0.200001
    endloop
  endfacet
  facet normal 0 0 1
    outer loop
      vertex -33.462 0 0.5
      vertex -31.75 0.413301 0.5
      vertex -31.75 2.96524 0.5
    endloop
  endfacet
  facet normal 0 0 1
    outer loop
      vertex -31.75 0.413301 0.5
      vertex -33.462 0 0.5
      vertex -31.7858 0.225599 0.5
    endloop
  endfacet
  facet normal 0 0 1
    outer loop
      vertex -31.7858 0.225599 0.5
      vertex -33.462 0 0.5
      vertex -31.8 0 0.5
    endloop
  endfacet
  facet normal 0 0 1
    outer loop
      vertex -33.462 0 0.5
      vertex -31.75 -0.413301 0.5
      vertex -31.7858 -0.225599 0.5
    endloop
  endfacet
  facet normal -0 0 1
    outer loop
      vertex -33.462 0 0.5
      vertex -31.7858 -0.225599 0.5
      vertex -31.8 0 0.5
    endloop
  endfacet
  facet normal 0 0 1
    outer loop
      vertex -31.75 -0.413301 0.5
      vertex -33.462 0 0.5
      vertex -31.75 -2.96524 0.5
    endloop
  endfacet
  facet normal 0 0 1
    outer loop
      vertex -26.538 0 0.5
      vertex -28.2142 0.225599 0.5
      vertex -28.2 0 0.5
    endloop
  endfacet
  facet normal -0 0 1
    outer loop
      vertex -28.25 0.413306 0.5
      vertex -26.538 0 0.5
      vertex -28.25 2.96524 0.5
    endloop
  endfacet
  facet normal 0 0 1
    outer loop
      vertex -26.538 0 0.5
      vertex -28.25 0.413306 0.5
      vertex -28.2142 0.225599 0.5
    endloop
  endfacet
  facet normal 0 0 1
    outer loop
      vertex -28.2142 -0.225599 0.5
      vertex -26.538 0 0.5
      vertex -28.2 0 0.5
    endloop
  endfacet
  facet normal 0 0 1
    outer loop
      vertex -28.25 -0.413306 0.5
      vertex -26.538 0 0.5
      vertex -28.2142 -0.225599 0.5
    endloop
  endfacet
  facet normal 0 0 1
    outer loop
      vertex -26.538 0 0.5
      vertex -28.25 -0.413306 0.5
      vertex -28.25 -2.96524 0.5
    endloop
  endfacet
  facet normal 0 0 -1
    outer loop
      vertex -28.25 -3.25 0.5
      vertex -28.269 -2.99817 0.5
      vertex -28.25 -2.96524 0.5
    endloop
  endfacet
  facet normal 0 0 -1
    outer loop
      vertex -28.25 -3.25 0.5
      vertex -31.731 -2.99817 0.5
      vertex -28.269 -2.99817 0.5
    endloop
  endfacet
  facet normal 0 0 -1
    outer loop
      vertex -31.75 -3.25 0.5
      vertex -31.731 -2.99817 0.5
      vertex -28.25 -3.25 0.5
    endloop
  endfacet
  facet normal -0 0 -1
    outer loop
      vertex -31.731 -2.99817 0.5
      vertex -31.75 -3.25 0.5
      vertex -31.75 -2.96524 0.5
    endloop
  endfacet
  facet normal 0 0 -1
    outer loop
      vertex -28.269 2.99817 0.5
      vertex -28.25 3.25 0.5
      vertex -28.25 2.96524 0.5
    endloop
  endfacet
  facet normal 0 0 -1
    outer loop
      vertex -31.731 2.99817 0.5
      vertex -28.25 3.25 0.5
      vertex -28.269 2.99817 0.5
    endloop
  endfacet
  facet normal 0 0 -1
    outer loop
      vertex -31.731 2.99817 0.5
      vertex -31.75 3.25 0.5
      vertex -28.25 3.25 0.5
    endloop
  endfacet
  facet normal 0 0 -1
    outer loop
      vertex -31.75 3.25 0.5
      vertex -31.731 2.99817 0.5
      vertex -31.75 2.96524 0.5
    endloop
  endfacet
  facet normal 0 1 -0
    outer loop
      vertex -28.25 -3.25 0.200001
      vertex -31.75 -3.25 0.5
      vertex -28.25 -3.25 0.5
    endloop
  endfacet
  facet normal 0 1 0
    outer loop
      vertex -31.75 -3.25 0.5
      vertex -28.25 -3.25 0.200001
      vertex -31.75 -3.25 0.200001
    endloop
  endfacet
  facet normal 0 -1 0
    outer loop
      vertex -31.75 1.75 0
      vertex -30.4078 1.75 0.200001
      vertex -31.75 1.75 0.200001
    endloop
  endfacet
  facet normal 0 -1 -0
    outer loop
      vertex -30.4078 1.75 0.200001
      vertex -31.75 1.75 0
      vertex -30.4078 1.75 0
    endloop
  endfacet
  facet normal 0 -1 0
    outer loop
      vertex -29.5922 1.75 0
      vertex -28.25 1.75 0.200001
      vertex -29.5922 1.75 0.200001
    endloop
  endfacet
  facet normal 0 -1 -0
    outer loop
      vertex -28.25 1.75 0.200001
      vertex -29.5922 1.75 0
      vertex -28.25 1.75 0
    endloop
  endfacet
  facet normal 0 1 -0
    outer loop
      vertex -30.4078 -1.75 0
      vertex -31.75 -1.75 0.200001
      vertex -30.4078 -1.75 0.200001
    endloop
  endfacet
  facet normal 0 1 0
    outer loop
      vertex -31.75 -1.75 0.200001
      vertex -30.4078 -1.75 0
      vertex -31.75 -1.75 0
    endloop
  endfacet
  facet normal 0 1 -0
    outer loop
      vertex -28.25 -1.75 0
      vertex -29.5922 -1.75 0.200001
      vertex -28.25 -1.75 0.200001
    endloop
  endfacet
  facet normal 0 1 0
    outer loop
      vertex -29.5922 -1.75 0.200001
      vertex -28.25 -1.75 0
      vertex -29.5922 -1.75 0
    endloop
  endfacet
  facet normal 0.866023 0.500004 0
    outer loop
      vertex -31.75 -2.96524 3
      vertex -33.462 0 0.5
      vertex -33.462 0 3
    endloop
  endfacet
  facet normal 0.866023 0.500004 0
    outer loop
      vertex -31.75 -2.96524 3
      vertex -31.75 -2.96524 0.5
      vertex -33.462 0 0.5
    endloop
  endfacet
  facet normal 0.866164 0.49976 0
    outer loop
      vertex -31.731 -2.99817 3
      vertex -31.75 -2.96524 0.5
      vertex -31.75 -2.96524 3
    endloop
  endfacet
  facet normal 0.866164 0.49976 0
    outer loop
      vertex -31.75 -2.96524 0.5
      vertex -31.731 -2.99817 3
      vertex -31.731 -2.99817 0.5
    endloop
  endfacet
  facet normal 0.866164 -0.49976 0
    outer loop
      vertex -31.75 2.96524 3
      vertex -31.731 2.99817 0.5
      vertex -31.731 2.99817 3
    endloop
  endfacet
  facet normal 0.866164 -0.49976 0
    outer loop
      vertex -31.75 2.96524 3
      vertex -31.75 2.96524 0.5
      vertex -31.731 2.99817 0.5
    endloop
  endfacet
  facet normal 0.866023 -0.500004 0
    outer loop
      vertex -33.462 0 3
      vertex -31.75 2.96524 0.5
      vertex -31.75 2.96524 3
    endloop
  endfacet
  facet normal 0.866023 -0.500004 0
    outer loop
      vertex -31.75 2.96524 0.5
      vertex -33.462 0 3
      vertex -33.462 0 0.5
    endloop
  endfacet
  facet normal -0.866023 0.500004 0
    outer loop
      vertex -28.25 -2.96524 0.5
      vertex -26.538 0 3
      vertex -26.538 0 0.5
    endloop
  endfacet
  facet normal -0.866023 0.500004 0
    outer loop
      vertex -28.25 -2.96524 0.5
      vertex -28.25 -2.96524 3
      vertex -26.538 0 3
    endloop
  endfacet
  facet normal -0.866164 0.49976 0
    outer loop
      vertex -28.269 -2.99817 0.5
      vertex -28.25 -2.96524 3
      vertex -28.25 -2.96524 0.5
    endloop
  endfacet
  facet normal -0.866164 0.49976 0
    outer loop
      vertex -28.25 -2.96524 3
      vertex -28.269 -2.99817 0.5
      vertex -28.269 -2.99817 3
    endloop
  endfacet
  facet normal 0 1 -0
    outer loop
      vertex -28.269 -2.99817 0.5
      vertex -31.731 -2.99817 3
      vertex -28.269 -2.99817 3
    endloop
  endfacet
  facet normal 0 1 0
    outer loop
      vertex -31.731 -2.99817 3
      vertex -28.269 -2.99817 0.5
      vertex -31.731 -2.99817 0.5
    endloop
  endfacet
  facet normal -0.866164 -0.49976 0
    outer loop
      vertex -28.25 2.96524 0.5
      vertex -28.269 2.99817 3
      vertex -28.269 2.99817 0.5
    endloop
  endfacet
  facet normal -0.866164 -0.49976 0
    outer loop
      vertex -28.25 2.96524 0.5
      vertex -28.25 2.96524 3
      vertex -28.269 2.99817 3
    endloop
  endfacet
  facet normal -0.866023 -0.500004 0
    outer loop
      vertex -26.538 0 0.5
      vertex -28.25 2.96524 3
      vertex -28.25 2.96524 0.5
    endloop
  endfacet
  facet normal -0.866023 -0.500004 0
    outer loop
      vertex -28.25 2.96524 3
      vertex -26.538 0 0.5
      vertex -26.538 0 3
    endloop
  endfacet
  facet normal 0 -1 0
    outer loop
      vertex -31.731 2.99817 0.5
      vertex -28.269 2.99817 3
      vertex -31.731 2.99817 3
    endloop
  endfacet
  facet normal 0 -1 -0
    outer loop
      vertex -28.269 2.99817 3
      vertex -31.731 2.99817 0.5
      vertex -28.269 2.99817 0.5
    endloop
  endfacet
  facet normal 0.982293 0.187351 0
    outer loop
      vertex -31.75 -0.413301 0.5
      vertex -31.7858 -0.225599 0
      vertex -31.7858 -0.225599 0.5
    endloop
  endfacet
  facet normal 0.982293 0.187351 0
    outer loop
      vertex -31.7858 -0.225599 0
      vertex -31.75 -0.413301 0.5
      vertex -31.75 -0.413301 0
    endloop
  endfacet
  facet normal 0.125309 -0.992118 0
    outer loop
      vertex -30.3373 1.76812 0
      vertex -30.113 1.79645 0.200001
      vertex -30.3373 1.76812 0.200001
    endloop
  endfacet
  facet normal 0.125309 -0.992118 0
    outer loop
      vertex -30.113 1.79645 0.200001
      vertex -30.3373 1.76812 0
      vertex -30.113 1.79645 0
    endloop
  endfacet
  facet normal 0.998025 -0.0628192 0
    outer loop
      vertex -31.8 0 0.5
      vertex -31.7858 0.225599 0
      vertex -31.7858 0.225599 0.5
    endloop
  endfacet
  facet normal 0.998025 -0.0628192 0
    outer loop
      vertex -31.7858 0.225599 0
      vertex -31.8 0 0.5
      vertex -31.8 0 0
    endloop
  endfacet
  facet normal 0 -1 0
    outer loop
      vertex -30.113 1.79645 0
      vertex -29.887 1.79645 0.200001
      vertex -30.113 1.79645 0.200001
    endloop
  endfacet
  facet normal 0 -1 -0
    outer loop
      vertex -29.887 1.79645 0.200001
      vertex -30.113 1.79645 0
      vertex -29.887 1.79645 0
    endloop
  endfacet
  facet normal 0.248931 -0.968521 0
    outer loop
      vertex -30.4078 1.75 0
      vertex -30.3373 1.76812 0.200001
      vertex -30.4078 1.75 0.200001
    endloop
  endfacet
  facet normal 0.248931 -0.968521 0
    outer loop
      vertex -30.3373 1.76812 0.200001
      vertex -30.4078 1.75 0
      vertex -30.3373 1.76812 0
    endloop
  endfacet
  facet normal 0.998025 0.0628192 0
    outer loop
      vertex -31.7858 -0.225599 0.5
      vertex -31.8 0 0
      vertex -31.8 0 0.5
    endloop
  endfacet
  facet normal 0.998025 0.0628192 0
    outer loop
      vertex -31.8 0 0
      vertex -31.7858 -0.225599 0.5
      vertex -31.7858 -0.225599 0
    endloop
  endfacet
  facet normal 0.125309 0.992118 -0
    outer loop
      vertex -30.113 -1.79645 0
      vertex -30.3373 -1.76812 0.200001
      vertex -30.113 -1.79645 0.200001
    endloop
  endfacet
  facet normal 0.125309 0.992118 0
    outer loop
      vertex -30.3373 -1.76812 0.200001
      vertex -30.113 -1.79645 0
      vertex -30.3373 -1.76812 0
    endloop
  endfacet
  facet normal 0.982293 -0.187351 0
    outer loop
      vertex -31.7858 0.225599 0.5
      vertex -31.75 0.413301 0
      vertex -31.75 0.413301 0.5
    endloop
  endfacet
  facet normal 0.982293 -0.187351 0
    outer loop
      vertex -31.75 0.413301 0
      vertex -31.7858 0.225599 0.5
      vertex -31.7858 0.225599 0
    endloop
  endfacet
  facet normal 0.248931 0.968521 -0
    outer loop
      vertex -30.3373 -1.76812 0
      vertex -30.4078 -1.75 0.200001
      vertex -30.3373 -1.76812 0.200001
    endloop
  endfacet
  facet normal 0.248931 0.968521 0
    outer loop
      vertex -30.4078 -1.75 0.200001
      vertex -30.3373 -1.76812 0
      vertex -30.4078 -1.75 0
    endloop
  endfacet
  facet normal 0 1 -0
    outer loop
      vertex -29.887 -1.79645 0
      vertex -30.113 -1.79645 0.200001
      vertex -29.887 -1.79645 0.200001
    endloop
  endfacet
  facet normal 0 1 0
    outer loop
      vertex -30.113 -1.79645 0.200001
      vertex -29.887 -1.79645 0
      vertex -30.113 -1.79645 0
    endloop
  endfacet
  facet normal -0.998025 -0.0628192 0
    outer loop
      vertex -28.2 0 0
      vertex -28.2142 0.225599 0.5
      vertex -28.2142 0.225599 0
    endloop
  endfacet
  facet normal -0.998025 -0.0628192 0
    outer loop
      vertex -28.2142 0.225599 0.5
      vertex -28.2 0 0
      vertex -28.2 0 0.5
    endloop
  endfacet
  facet normal -0.982294 -0.187346 0
    outer loop
      vertex -28.2142 0.225599 0
      vertex -28.25 0.413306 0.5
      vertex -28.25 0.413306 0
    endloop
  endfacet
  facet normal -0.982294 -0.187346 0
    outer loop
      vertex -28.25 0.413306 0.5
      vertex -28.2142 0.225599 0
      vertex -28.2142 0.225599 0.5
    endloop
  endfacet
  facet normal -0.248931 -0.968521 0
    outer loop
      vertex -29.6627 1.76812 0
      vertex -29.5922 1.75 0.200001
      vertex -29.6627 1.76812 0.200001
    endloop
  endfacet
  facet normal -0.248931 -0.968521 -0
    outer loop
      vertex -29.5922 1.75 0.200001
      vertex -29.6627 1.76812 0
      vertex -29.5922 1.75 0
    endloop
  endfacet
  facet normal -0.125309 0.992118 0
    outer loop
      vertex -29.6627 -1.76812 0
      vertex -29.887 -1.79645 0.200001
      vertex -29.6627 -1.76812 0.200001
    endloop
  endfacet
  facet normal -0.125309 0.992118 0
    outer loop
      vertex -29.887 -1.79645 0.200001
      vertex -29.6627 -1.76812 0
      vertex -29.887 -1.79645 0
    endloop
  endfacet
  facet normal -0.125309 -0.992118 0
    outer loop
      vertex -29.887 1.79645 0
      vertex -29.6627 1.76812 0.200001
      vertex -29.887 1.79645 0.200001
    endloop
  endfacet
  facet normal -0.125309 -0.992118 -0
    outer loop
      vertex -29.6627 1.76812 0.200001
      vertex -29.887 1.79645 0
      vertex -29.6627 1.76812 0
    endloop
  endfacet
  facet normal -0.982294 0.187346 0
    outer loop
      vertex -28.25 -0.413306 0
      vertex -28.2142 -0.225599 0.5
      vertex -28.2142 -0.225599 0
    endloop
  endfacet
  facet normal -0.982294 0.187346 0
    outer loop
      vertex -28.2142 -0.225599 0.5
      vertex -28.25 -0.413306 0
      vertex -28.25 -0.413306 0.5
    endloop
  endfacet
  facet normal 0 0 -1
    outer loop
      vertex -37 2 0
      vertex -31.75 0.413301 0
      vertex -31.7858 0.225599 0
    endloop
  endfacet
  facet normal -0 0 -1
    outer loop
      vertex 28.25 0.413306 0
      vertex 28.2142 0.225599 0
      vertex 28.25 1.75 0
    endloop
  endfacet
  facet normal 0 0 -1
    outer loop
      vertex 31.75 -1.75 0
      vertex 37 -2 0
      vertex 36.9606 -2.62667 0
    endloop
  endfacet
  facet normal 0 0 -1
    outer loop
      vertex 37 -2 0
      vertex 31.8 0 0
      vertex 37 2 0
    endloop
  endfacet
  facet normal 0 0 -1
    outer loop
      vertex 31.75 -1.75 0
      vertex 36.9606 -2.62667 0
      vertex 36.8429 -3.24345 0
    endloop
  endfacet
  facet normal 0 0 -1
    outer loop
      vertex 31.7858 0.225599 0
      vertex 37 2 0
      vertex 31.8 0 0
    endloop
  endfacet
  facet normal 0 0 -1
    outer loop
      vertex 31.75 -1.75 0
      vertex 36.8429 -3.24345 0
      vertex 36.6489 -3.84062 0
    endloop
  endfacet
  facet normal 0 0 -1
    outer loop
      vertex 31.75 0.413301 0
      vertex 37 2 0
      vertex 31.7858 0.225599 0
    endloop
  endfacet
  facet normal 0 0 -1
    outer loop
      vertex 31.75 -1.75 0
      vertex 36.6489 -3.84062 0
      vertex 36.3815 -4.40877 0
    endloop
  endfacet
  facet normal 0 0 -1
    outer loop
      vertex 31.75 1.75 0
      vertex 37 2 0
      vertex 31.75 0.413301 0
    endloop
  endfacet
  facet normal 0 0 -1
    outer loop
      vertex 31.75 -1.75 0
      vertex 36.3815 -4.40877 0
      vertex 36.0451 -4.93893 0
    endloop
  endfacet
  facet normal -0 0 -1
    outer loop
      vertex 37 2 0
      vertex 31.75 1.75 0
      vertex 36.9606 2.62667 0
    endloop
  endfacet
  facet normal 0 0 -1
    outer loop
      vertex 31.75 -1.75 0
      vertex 36.0451 -4.93893 0
      vertex 35.6448 -5.42274 0
    endloop
  endfacet
  facet normal -0 0 -1
    outer loop
      vertex 36.9606 2.62667 0
      vertex 31.75 1.75 0
      vertex 36.8429 3.24345 0
    endloop
  endfacet
  facet normal 0 0 -1
    outer loop
      vertex 31.75 -1.75 0
      vertex 35.6448 -5.42274 0
      vertex 35.1871 -5.85257 0
    endloop
  endfacet
  facet normal -0 0 -1
    outer loop
      vertex 36.8429 3.24345 0
      vertex 31.75 1.75 0
      vertex 36.6489 3.84062 0
    endloop
  endfacet
  facet normal 0 0 -1
    outer loop
      vertex 31.75 -1.75 0
      vertex 35.1871 -5.85257 0
      vertex 34.6791 -6.22164 0
    endloop
  endfacet
  facet normal -0 0 -1
    outer loop
      vertex 36.3815 4.40877 0
      vertex 31.75 1.75 0
      vertex 36.0451 4.93893 0
    endloop
  endfacet
  facet normal 0 0 -1
    outer loop
      vertex 31.75 -1.75 0
      vertex 34.6791 -6.22164 0
      vertex 34.1289 -6.52413 0
    endloop
  endfacet
  facet normal -0 0 -1
    outer loop
      vertex 36.0451 4.93893 0
      vertex 31.75 1.75 0
      vertex 35.6448 5.42274 0
    endloop
  endfacet
  facet normal 0 0 -1
    outer loop
      vertex 31.75 -1.75 0
      vertex 34.1289 -6.52413 0
      vertex 33.5451 -6.75528 0
    endloop
  endfacet
  facet normal -0 0 -1
    outer loop
      vertex 35.6448 5.42274 0
      vertex 31.75 1.75 0
      vertex 35.1871 5.85257 0
    endloop
  endfacet
  facet normal 0 0 -1
    outer loop
      vertex 31.75 -1.75 0
      vertex 33.5451 -6.75528 0
      vertex 32.9369 -6.91144 0
    endloop
  endfacet
  facet normal -0 0 -1
    outer loop
      vertex 35.1871 5.85257 0
      vertex 31.75 1.75 0
      vertex 34.6791 6.22164 0
    endloop
  endfacet
  facet normal 0 0 -1
    outer loop
      vertex 31.75 -1.75 0
      vertex 32.9369 -6.91144 0
      vertex 32.314 -6.99013 0
    endloop
  endfacet
  facet normal -0 0 -1
    outer loop
      vertex 34.6791 6.22164 0
      vertex 31.75 1.75 0
      vertex 34.1289 6.52413 0
    endloop
  endfacet
  facet normal -0 0 -1
    outer loop
      vertex 34.1289 6.52413 0
      vertex 31.75 1.75 0
      vertex 33.5451 6.75528 0
    endloop
  endfacet
  facet normal 0 0 -1
    outer loop
      vertex 37 -2 0
      vertex 31.7858 -0.225599 0
      vertex 31.8 0 0
    endloop
  endfacet
  facet normal 0 0 -1
    outer loop
      vertex 37 -2 0
      vertex 31.75 -1.75 0
      vertex 31.75 -0.413301 0
    endloop
  endfacet
  facet normal 0 0 -1
    outer loop
      vertex 32.314 -6.99013 0
      vertex 30.4078 -1.75 0
      vertex 31.75 -1.75 0
    endloop
  endfacet
  facet normal 0 0 -1
    outer loop
      vertex 32.314 -6.99013 0
      vertex 30.3373 -1.76812 0
      vertex 30.4078 -1.75 0
    endloop
  endfacet
  facet normal 0 0 -1
    outer loop
      vertex 32.314 -6.99013 0
      vertex 30.113 -1.79645 0
      vertex 30.3373 -1.76812 0
    endloop
  endfacet
  facet normal 0 0 -1
    outer loop
      vertex 32.314 -6.99013 0
      vertex 29.887 -1.79645 0
      vertex 30.113 -1.79645 0
    endloop
  endfacet
  facet normal 0 0 -1
    outer loop
      vertex 32.314 -6.99013 0
      vertex 29.6627 -1.76812 0
      vertex 29.887 -1.79645 0
    endloop
  endfacet
  facet normal 0 0 -1
    outer loop
      vertex 28.25 -1.75 0
      vertex 29.6627 -1.76812 0
      vertex 32.314 -6.99013 0
    endloop
  endfacet
  facet normal 0 0 -1
    outer loop
      vertex 29.6627 -1.76812 0
      vertex 28.25 -1.75 0
      vertex 29.5922 -1.75 0
    endloop
  endfacet
  facet normal 0 0 -1
    outer loop
      vertex 28.25 -1.75 0
      vertex 28.2142 -0.225599 0
      vertex 28.25 -0.413306 0
    endloop
  endfacet
  facet normal 0 0 -1
    outer loop
      vertex 28.25 -1.75 0
      vertex 28.2 0 0
      vertex 28.2142 -0.225599 0
    endloop
  endfacet
  facet normal 0 0 -1
    outer loop
      vertex 28.25 -1.75 0
      vertex -28.2 0 0
      vertex 28.2 0 0
    endloop
  endfacet
  facet normal 0 0 -1
    outer loop
      vertex -28.25 -1.75 0
      vertex 28.25 -1.75 0
      vertex 32.314 -6.99013 0
    endloop
  endfacet
  facet normal 0 0 -1
    outer loop
      vertex 28.25 -1.75 0
      vertex -28.25 -1.75 0
      vertex -28.2 0 0
    endloop
  endfacet
  facet normal 0 0 -1
    outer loop
      vertex -28.2 0 0
      vertex -28.25 -1.75 0
      vertex -28.2142 -0.225599 0
    endloop
  endfacet
  facet normal 0 0 -1
    outer loop
      vertex -32.314 -6.99013 0
      vertex -28.25 -1.75 0
      vertex 32.314 -6.99013 0
    endloop
  endfacet
  facet normal 0 -0 -1
    outer loop
      vertex -29.6627 -1.76812 0
      vertex -28.25 -1.75 0
      vertex -32.314 -6.99013 0
    endloop
  endfacet
  facet normal -0 0 -1
    outer loop
      vertex -28.25 -1.75 0
      vertex -29.6627 -1.76812 0
      vertex -29.5922 -1.75 0
    endloop
  endfacet
  facet normal 0 0 -1
    outer loop
      vertex -29.6627 -1.76812 0
      vertex -32.314 -6.99013 0
      vertex -29.887 -1.79645 0
    endloop
  endfacet
  facet normal 0 0 -1
    outer loop
      vertex -30.3373 -1.76812 0
      vertex -31.75 -1.75 0
      vertex -30.4078 -1.75 0
    endloop
  endfacet
  facet normal 0 0 -1
    outer loop
      vertex -32.314 -6.99013 0
      vertex -30.3373 -1.76812 0
      vertex -30.113 -1.79645 0
    endloop
  endfacet
  facet normal -0 0 -1
    outer loop
      vertex -29.887 -1.79645 0
      vertex -32.314 -6.99013 0
      vertex -30.113 -1.79645 0
    endloop
  endfacet
  facet normal 0 0 -1
    outer loop
      vertex -37 -2 0
      vertex -31.75 -0.413301 0
      vertex -31.75 -1.75 0
    endloop
  endfacet
  facet normal -0 0 -1
    outer loop
      vertex -31.75 -0.413301 0
      vertex -37 -2 0
      vertex -31.7858 -0.225599 0
    endloop
  endfacet
  facet normal 0 0 -1
    outer loop
      vertex -32.9369 -6.91144 0
      vertex -31.75 -1.75 0
      vertex -32.314 -6.99013 0
    endloop
  endfacet
  facet normal -0 0 -1
    outer loop
      vertex -30.3373 -1.76812 0
      vertex -32.314 -6.99013 0
      vertex -31.75 -1.75 0
    endloop
  endfacet
  facet normal -0 0 -1
    outer loop
      vertex 33.5451 6.75528 0
      vertex 31.75 1.75 0
      vertex 32.9369 6.91144 0
    endloop
  endfacet
  facet normal -0 0 -1
    outer loop
      vertex 36.6489 3.84062 0
      vertex 31.75 1.75 0
      vertex 36.3815 4.40877 0
    endloop
  endfacet
  facet normal -0 0 -1
    outer loop
      vertex 32.9369 6.91144 0
      vertex 31.75 1.75 0
      vertex 32.314 6.99013 0
    endloop
  endfacet
  facet normal 0 0 -1
    outer loop
      vertex 30.4078 1.75 0
      vertex 32.314 6.99013 0
      vertex 31.75 1.75 0
    endloop
  endfacet
  facet normal 0 0 -1
    outer loop
      vertex 30.3373 1.76812 0
      vertex 32.314 6.99013 0
      vertex 30.4078 1.75 0
    endloop
  endfacet
  facet normal 0 0 -1
    outer loop
      vertex 30.113 1.79645 0
      vertex 32.314 6.99013 0
      vertex 30.3373 1.76812 0
    endloop
  endfacet
  facet normal 0 0 -1
    outer loop
      vertex 29.887 1.79645 0
      vertex 32.314 6.99013 0
      vertex 30.113 1.79645 0
    endloop
  endfacet
  facet normal 0 0 -1
    outer loop
      vertex 29.6627 1.76812 0
      vertex 32.314 6.99013 0
      vertex 29.887 1.79645 0
    endloop
  endfacet
  facet normal 0 0 -1
    outer loop
      vertex 28.25 1.75 0
      vertex 29.6627 1.76812 0
      vertex 29.5922 1.75 0
    endloop
  endfacet
  facet normal -0 0 -1
    outer loop
      vertex 29.6627 1.76812 0
      vertex 28.25 1.75 0
      vertex 32.314 6.99013 0
    endloop
  endfacet
  facet normal 0 0 -1
    outer loop
      vertex 28.2 0 0
      vertex 28.25 1.75 0
      vertex 28.2142 0.225599 0
    endloop
  endfacet
  facet normal 0 0 -1
    outer loop
      vertex -28.2 0 0
      vertex 28.25 1.75 0
      vertex 28.2 0 0
    endloop
  endfacet
  facet normal 0 0 -1
    outer loop
      vertex -28.25 1.75 0
      vertex 28.25 1.75 0
      vertex -28.2 0 0
    endloop
  endfacet
  facet normal 0 0 -1
    outer loop
      vertex -28.25 1.75 0
      vertex -28.2 0 0
      vertex -28.2142 0.225599 0
    endloop
  endfacet
  facet normal 0 0 -1
    outer loop
      vertex -28.25 1.75 0
      vertex -28.2142 0.225599 0
      vertex -28.25 0.413306 0
    endloop
  endfacet
  facet normal 0 0 -1
    outer loop
      vertex 28.25 1.75 0
      vertex -28.25 1.75 0
      vertex 32.314 6.99013 0
    endloop
  endfacet
  facet normal 0 0 -1
    outer loop
      vertex -29.6627 1.76812 0
      vertex -28.25 1.75 0
      vertex -29.5922 1.75 0
    endloop
  endfacet
  facet normal 0 0 -1
    outer loop
      vertex -28.25 1.75 0
      vertex -29.6627 1.76812 0
      vertex -32.314 6.99013 0
    endloop
  endfacet
  facet normal 0 0 -1
    outer loop
      vertex -32.314 6.99013 0
      vertex -29.6627 1.76812 0
      vertex -29.887 1.79645 0
    endloop
  endfacet
  facet normal 0 0 -1
    outer loop
      vertex -32.314 6.99013 0
      vertex -29.887 1.79645 0
      vertex -30.113 1.79645 0
    endloop
  endfacet
  facet normal 0 0 -1
    outer loop
      vertex -31.75 1.75 0
      vertex -30.3373 1.76812 0
      vertex -30.4078 1.75 0
    endloop
  endfacet
  facet normal 0 0 -1
    outer loop
      vertex -32.314 6.99013 0
      vertex -30.3373 1.76812 0
      vertex -31.75 1.75 0
    endloop
  endfacet
  facet normal 0 0 -1
    outer loop
      vertex -30.3373 1.76812 0
      vertex -32.314 6.99013 0
      vertex -30.113 1.79645 0
    endloop
  endfacet
  facet normal 0 0 -1
    outer loop
      vertex -37 2 0
      vertex -31.7858 0.225599 0
      vertex -31.8 0 0
    endloop
  endfacet
  facet normal 0 0 -1
    outer loop
      vertex -33.5451 -6.75528 0
      vertex -31.75 -1.75 0
      vertex -32.9369 -6.91144 0
    endloop
  endfacet
  facet normal 0 0 -1
    outer loop
      vertex -28.25 1.75 0
      vertex -32.314 6.99013 0
      vertex 32.314 6.99013 0
    endloop
  endfacet
  facet normal 0 0 -1
    outer loop
      vertex -34.1289 -6.52413 0
      vertex -31.75 -1.75 0
      vertex -33.5451 -6.75528 0
    endloop
  endfacet
  facet normal 0 0 -1
    outer loop
      vertex -34.6791 -6.22164 0
      vertex -31.75 -1.75 0
      vertex -34.1289 -6.52413 0
    endloop
  endfacet
  facet normal 0 0 -1
    outer loop
      vertex -31.75 0.413301 0
      vertex -37 2 0
      vertex -31.75 1.75 0
    endloop
  endfacet
  facet normal 0 0 -1
    outer loop
      vertex -35.1871 -5.85257 0
      vertex -31.75 -1.75 0
      vertex -34.6791 -6.22164 0
    endloop
  endfacet
  facet normal 0 -0 -1
    outer loop
      vertex -36.9606 2.62667 0
      vertex -31.75 1.75 0
      vertex -37 2 0
    endloop
  endfacet
  facet normal 0 0 -1
    outer loop
      vertex -35.6448 -5.42274 0
      vertex -31.75 -1.75 0
      vertex -35.1871 -5.85257 0
    endloop
  endfacet
  facet normal 0 0 -1
    outer loop
      vertex -31.75 1.75 0
      vertex -32.9369 6.91144 0
      vertex -32.314 6.99013 0
    endloop
  endfacet
  facet normal 0 0 -1
    outer loop
      vertex -36.0451 -4.93893 0
      vertex -31.75 -1.75 0
      vertex -35.6448 -5.42274 0
    endloop
  endfacet
  facet normal 0 0 -1
    outer loop
      vertex -31.75 1.75 0
      vertex -33.5451 6.75528 0
      vertex -32.9369 6.91144 0
    endloop
  endfacet
  facet normal 0 0 -1
    outer loop
      vertex -36.3815 -4.40877 0
      vertex -31.75 -1.75 0
      vertex -36.0451 -4.93893 0
    endloop
  endfacet
  facet normal 0 0 -1
    outer loop
      vertex -31.75 1.75 0
      vertex -34.1289 6.52413 0
      vertex -33.5451 6.75528 0
    endloop
  endfacet
  facet normal 0 0 -1
    outer loop
      vertex -36.6489 -3.84062 0
      vertex -31.75 -1.75 0
      vertex -36.3815 -4.40877 0
    endloop
  endfacet
  facet normal 0 0 -1
    outer loop
      vertex -31.75 1.75 0
      vertex -34.6791 6.22164 0
      vertex -34.1289 6.52413 0
    endloop
  endfacet
  facet normal 0 0 -1
    outer loop
      vertex -36.8429 -3.24345 0
      vertex -31.75 -1.75 0
      vertex -36.6489 -3.84062 0
    endloop
  endfacet
  facet normal 0 0 -1
    outer loop
      vertex -31.75 1.75 0
      vertex -35.1871 5.85257 0
      vertex -34.6791 6.22164 0
    endloop
  endfacet
  facet normal 0 0 -1
    outer loop
      vertex -36.9606 -2.62667 0
      vertex -31.75 -1.75 0
      vertex -36.8429 -3.24345 0
    endloop
  endfacet
  facet normal 0 0 -1
    outer loop
      vertex -31.75 1.75 0
      vertex -35.6448 5.42274 0
      vertex -35.1871 5.85257 0
    endloop
  endfacet
  facet normal 0 0 -1
    outer loop
      vertex -37 -2 0
      vertex -31.75 -1.75 0
      vertex -36.9606 -2.62667 0
    endloop
  endfacet
  facet normal 0 0 -1
    outer loop
      vertex -31.75 1.75 0
      vertex -36.0451 4.93893 0
      vertex -35.6448 5.42274 0
    endloop
  endfacet
  facet normal -0 0 -1
    outer loop
      vertex -31.7858 -0.225599 0
      vertex -37 -2 0
      vertex -31.8 0 0
    endloop
  endfacet
  facet normal 0 0 -1
    outer loop
      vertex -31.75 1.75 0
      vertex -36.3815 4.40877 0
      vertex -36.0451 4.93893 0
    endloop
  endfacet
  facet normal 0 0 -1
    outer loop
      vertex -37 2 0
      vertex -31.8 0 0
      vertex -37 -2 0
    endloop
  endfacet
  facet normal 0 0 -1
    outer loop
      vertex -31.75 1.75 0
      vertex -36.6489 3.84062 0
      vertex -36.3815 4.40877 0
    endloop
  endfacet
  facet normal 0 0 -1
    outer loop
      vertex -31.75 1.75 0
      vertex -36.8429 3.24345 0
      vertex -36.6489 3.84062 0
    endloop
  endfacet
  facet normal 0 0 -1
    outer loop
      vertex -31.75 1.75 0
      vertex -36.9606 2.62667 0
      vertex -36.8429 3.24345 0
    endloop
  endfacet
  facet normal 0 0 -1
    outer loop
      vertex 37 -2 0
      vertex 31.75 -0.413301 0
      vertex 31.7858 -0.225599 0
    endloop
  endfacet
  facet normal 0 0 -1
    outer loop
      vertex -28.2142 -0.225599 0
      vertex -28.25 -1.75 0
      vertex -28.25 -0.413306 0
    endloop
  endfacet
  facet normal -0.998025 0.0628192 0
    outer loop
      vertex -28.2142 -0.225599 0
      vertex -28.2 0 0.5
      vertex -28.2 0 0
    endloop
  endfacet
  facet normal -0.998025 0.0628192 0
    outer loop
      vertex -28.2 0 0.5
      vertex -28.2142 -0.225599 0
      vertex -28.2142 -0.225599 0.5
    endloop
  endfacet
  facet normal -0.248931 0.968521 0
    outer loop
      vertex -29.5922 -1.75 0
      vertex -29.6627 -1.76812 0.200001
      vertex -29.5922 -1.75 0.200001
    endloop
  endfacet
  facet normal -0.248931 0.968521 0
    outer loop
      vertex -29.6627 -1.76812 0.200001
      vertex -29.5922 -1.75 0
      vertex -29.6627 -1.76812 0
    endloop
  endfacet
  facet normal 0.248931 -0.968521 0
    outer loop
      vertex 29.5922 1.75 0
      vertex 29.6627 1.76812 0.200001
      vertex 29.5922 1.75 0.200001
    endloop
  endfacet
  facet normal 0.248931 -0.968521 0
    outer loop
      vertex 29.6627 1.76812 0.200001
      vertex 29.5922 1.75 0
      vertex 29.6627 1.76812 0
    endloop
  endfacet
  facet normal 0.998025 -0.0628192 0
    outer loop
      vertex 28.2 0 0.5
      vertex 28.2142 0.225599 0
      vertex 28.2142 0.225599 0.5
    endloop
  endfacet
  facet normal 0.998025 -0.0628192 0
    outer loop
      vertex 28.2142 0.225599 0
      vertex 28.2 0 0.5
      vertex 28.2 0 0
    endloop
  endfacet
  facet normal 0.125309 -0.992118 0
    outer loop
      vertex 29.6627 1.76812 0
      vertex 29.887 1.79645 0.200001
      vertex 29.6627 1.76812 0.200001
    endloop
  endfacet
  facet normal 0.125309 -0.992118 0
    outer loop
      vertex 29.887 1.79645 0.200001
      vertex 29.6627 1.76812 0
      vertex 29.887 1.79645 0
    endloop
  endfacet
  facet normal 0.982294 -0.187346 0
    outer loop
      vertex 28.2142 0.225599 0.5
      vertex 28.25 0.413306 0
      vertex 28.25 0.413306 0.5
    endloop
  endfacet
  facet normal 0.982294 -0.187346 0
    outer loop
      vertex 28.25 0.413306 0
      vertex 28.2142 0.225599 0.5
      vertex 28.2142 0.225599 0
    endloop
  endfacet
  facet normal 0.248931 0.968521 -0
    outer loop
      vertex 29.6627 -1.76812 0
      vertex 29.5922 -1.75 0.200001
      vertex 29.6627 -1.76812 0.200001
    endloop
  endfacet
  facet normal 0.248931 0.968521 0
    outer loop
      vertex 29.5922 -1.75 0.200001
      vertex 29.6627 -1.76812 0
      vertex 29.5922 -1.75 0
    endloop
  endfacet
  facet normal 0.998025 0.0628192 0
    outer loop
      vertex 28.2142 -0.225599 0.5
      vertex 28.2 0 0
      vertex 28.2 0 0.5
    endloop
  endfacet
  facet normal 0.998025 0.0628192 0
    outer loop
      vertex 28.2 0 0
      vertex 28.2142 -0.225599 0.5
      vertex 28.2142 -0.225599 0
    endloop
  endfacet
  facet normal 0.982294 0.187346 0
    outer loop
      vertex 28.25 -0.413306 0.5
      vertex 28.2142 -0.225599 0
      vertex 28.2142 -0.225599 0.5
    endloop
  endfacet
  facet normal 0.982294 0.187346 0
    outer loop
      vertex 28.2142 -0.225599 0
      vertex 28.25 -0.413306 0.5
      vertex 28.25 -0.413306 0
    endloop
  endfacet
  facet normal 0.125309 0.992118 -0
    outer loop
      vertex 29.887 -1.79645 0
      vertex 29.6627 -1.76812 0.200001
      vertex 29.887 -1.79645 0.200001
    endloop
  endfacet
  facet normal 0.125309 0.992118 0
    outer loop
      vertex 29.6627 -1.76812 0.200001
      vertex 29.887 -1.79645 0
      vertex 29.6627 -1.76812 0
    endloop
  endfacet
  facet normal -1 0 0
    outer loop
      vertex -37 -2 0
      vertex -37 2 3
      vertex -37 2 0
    endloop
  endfacet
  facet normal -1 -0 0
    outer loop
      vertex -37 2 3
      vertex -37 -2 0
      vertex -37 -2 3
    endloop
  endfacet
  facet normal 0 -1 0
    outer loop
      vertex -32.314 -6.99013 0
      vertex 32.314 -6.99013 3
      vertex -32.314 -6.99013 3
    endloop
  endfacet
  facet normal 0 -1 -0
    outer loop
      vertex 32.314 -6.99013 3
      vertex -32.314 -6.99013 0
      vertex 32.314 -6.99013 0
    endloop
  endfacet
  facet normal 0 1 -0
    outer loop
      vertex 32.314 6.99013 0
      vertex -32.314 6.99013 3
      vertex 32.314 6.99013 3
    endloop
  endfacet
  facet normal 0 1 0
    outer loop
      vertex -32.314 6.99013 3
      vertex 32.314 6.99013 0
      vertex -32.314 6.99013 0
    endloop
  endfacet
  facet normal -0.684565 -0.728952 0
    outer loop
      vertex -35.6448 -5.42274 0
      vertex -35.1871 -5.85257 3
      vertex -35.6448 -5.42274 3
    endloop
  endfacet
  facet normal -0.684565 -0.728952 -0
    outer loop
      vertex -35.1871 -5.85257 3
      vertex -35.6448 -5.42274 0
      vertex -35.1871 -5.85257 0
    endloop
  endfacet
  facet normal 0.998029 -0.0627481 0
    outer loop
      vertex 36.9606 -2.62667 3
      vertex 37 -2 0
      vertex 37 -2 3
    endloop
  endfacet
  facet normal 0.998029 -0.0627481 0
    outer loop
      vertex 37 -2 0
      vertex 36.9606 -2.62667 3
      vertex 36.9606 -2.62667 0
    endloop
  endfacet
  facet normal 0.125332 -0.992115 0
    outer loop
      vertex 32.314 -6.99013 0
      vertex 32.9369 -6.91144 3
      vertex 32.314 -6.99013 3
    endloop
  endfacet
  facet normal 0.125332 -0.992115 0
    outer loop
      vertex 32.9369 -6.91144 3
      vertex 32.314 -6.99013 0
      vertex 32.9369 -6.91144 0
    endloop
  endfacet
  facet normal -0.951072 -0.30897 0
    outer loop
      vertex -36.6489 -3.84062 0
      vertex -36.8429 -3.24345 3
      vertex -36.8429 -3.24345 0
    endloop
  endfacet
  facet normal -0.951072 -0.30897 0
    outer loop
      vertex -36.8429 -3.24345 3
      vertex -36.6489 -3.84062 0
      vertex -36.6489 -3.84062 3
    endloop
  endfacet
  facet normal -0.368135 -0.929773 0
    outer loop
      vertex -34.1289 -6.52413 0
      vertex -33.5451 -6.75528 3
      vertex -34.1289 -6.52413 3
    endloop
  endfacet
  facet normal -0.368135 -0.929773 -0
    outer loop
      vertex -33.5451 -6.75528 3
      vertex -34.1289 -6.52413 0
      vertex -33.5451 -6.75528 0
    endloop
  endfacet
  facet normal -0.481772 -0.876297 0
    outer loop
      vertex -34.6791 -6.22164 0
      vertex -34.1289 -6.52413 3
      vertex -34.6791 -6.22164 3
    endloop
  endfacet
  facet normal -0.481772 -0.876297 -0
    outer loop
      vertex -34.1289 -6.52413 3
      vertex -34.6791 -6.22164 0
      vertex -34.1289 -6.52413 0
    endloop
  endfacet
  facet normal -0.248691 -0.968583 0
    outer loop
      vertex -33.5451 -6.75528 0
      vertex -32.9369 -6.91144 3
      vertex -33.5451 -6.75528 3
    endloop
  endfacet
  facet normal -0.248691 -0.968583 -0
    outer loop
      vertex -32.9369 -6.91144 3
      vertex -33.5451 -6.75528 0
      vertex -32.9369 -6.91144 0
    endloop
  endfacet
  facet normal 0.844364 -0.53577 0
    outer loop
      vertex 36.0451 -4.93893 3
      vertex 36.3815 -4.40877 0
      vertex 36.3815 -4.40877 3
    endloop
  endfacet
  facet normal 0.844364 -0.53577 0
    outer loop
      vertex 36.3815 -4.40877 0
      vertex 36.0451 -4.93893 3
      vertex 36.0451 -4.93893 0
    endloop
  endfacet
  facet normal 0.951072 0.30897 0
    outer loop
      vertex 36.8429 3.24345 3
      vertex 36.6489 3.84062 0
      vertex 36.6489 3.84062 3
    endloop
  endfacet
  facet normal 0.951072 0.30897 0
    outer loop
      vertex 36.6489 3.84062 0
      vertex 36.8429 3.24345 3
      vertex 36.8429 3.24345 0
    endloop
  endfacet
  facet normal 0.770468 0.637478 0
    outer loop
      vertex 36.0451 4.93893 3
      vertex 35.6448 5.42274 0
      vertex 35.6448 5.42274 3
    endloop
  endfacet
  facet normal 0.770468 0.637478 0
    outer loop
      vertex 35.6448 5.42274 0
      vertex 36.0451 4.93893 3
      vertex 36.0451 4.93893 0
    endloop
  endfacet
  facet normal 0.684565 0.728952 -0
    outer loop
      vertex 35.6448 5.42274 0
      vertex 35.1871 5.85257 3
      vertex 35.6448 5.42274 3
    endloop
  endfacet
  facet normal 0.684565 0.728952 0
    outer loop
      vertex 35.1871 5.85257 3
      vertex 35.6448 5.42274 0
      vertex 35.1871 5.85257 0
    endloop
  endfacet
  facet normal 0.125332 0.992115 -0
    outer loop
      vertex 32.9369 6.91144 0
      vertex 32.314 6.99013 3
      vertex 32.9369 6.91144 3
    endloop
  endfacet
  facet normal 0.125332 0.992115 0
    outer loop
      vertex 32.314 6.99013 3
      vertex 32.9369 6.91144 0
      vertex 32.314 6.99013 0
    endloop
  endfacet
  facet normal 0.368135 0.929773 -0
    outer loop
      vertex 34.1289 6.52413 0
      vertex 33.5451 6.75528 3
      vertex 34.1289 6.52413 3
    endloop
  endfacet
  facet normal 0.368135 0.929773 0
    outer loop
      vertex 33.5451 6.75528 3
      vertex 34.1289 6.52413 0
      vertex 33.5451 6.75528 0
    endloop
  endfacet
  facet normal -0.904797 0.425843 0
    outer loop
      vertex -36.6489 3.84062 0
      vertex -36.3815 4.40877 3
      vertex -36.3815 4.40877 0
    endloop
  endfacet
  facet normal -0.904797 0.425843 0
    outer loop
      vertex -36.3815 4.40877 3
      vertex -36.6489 3.84062 0
      vertex -36.6489 3.84062 3
    endloop
  endfacet
  facet normal -0.368135 0.929773 0
    outer loop
      vertex -33.5451 6.75528 0
      vertex -34.1289 6.52413 3
      vertex -33.5451 6.75528 3
    endloop
  endfacet
  facet normal -0.368135 0.929773 0
    outer loop
      vertex -34.1289 6.52413 3
      vertex -33.5451 6.75528 0
      vertex -34.1289 6.52413 0
    endloop
  endfacet
  facet normal -0.982275 0.187447 0
    outer loop
      vertex -36.9606 2.62667 0
      vertex -36.8429 3.24345 3
      vertex -36.8429 3.24345 0
    endloop
  endfacet
  facet normal -0.982275 0.187447 0
    outer loop
      vertex -36.8429 3.24345 3
      vertex -36.9606 2.62667 0
      vertex -36.9606 2.62667 3
    endloop
  endfacet
  facet normal -0.998029 0.0627481 0
    outer loop
      vertex -37 2 0
      vertex -36.9606 2.62667 3
      vertex -36.9606 2.62667 0
    endloop
  endfacet
  facet normal -0.998029 0.0627481 0
    outer loop
      vertex -36.9606 2.62667 3
      vertex -37 2 0
      vertex -37 2 3
    endloop
  endfacet
  facet normal -0.998029 -0.0627481 0
    outer loop
      vertex -36.9606 -2.62667 0
      vertex -37 -2 3
      vertex -37 -2 0
    endloop
  endfacet
  facet normal -0.998029 -0.0627481 0
    outer loop
      vertex -37 -2 3
      vertex -36.9606 -2.62667 0
      vertex -36.9606 -2.62667 3
    endloop
  endfacet
  facet normal -0.982275 -0.187447 0
    outer loop
      vertex -36.8429 -3.24345 0
      vertex -36.9606 -2.62667 3
      vertex -36.9606 -2.62667 0
    endloop
  endfacet
  facet normal -0.982275 -0.187447 0
    outer loop
      vertex -36.9606 -2.62667 3
      vertex -36.8429 -3.24345 0
      vertex -36.8429 -3.24345 3
    endloop
  endfacet
  facet normal -0.904797 -0.425843 0
    outer loop
      vertex -36.3815 -4.40877 0
      vertex -36.6489 -3.84062 3
      vertex -36.6489 -3.84062 0
    endloop
  endfacet
  facet normal -0.904797 -0.425843 0
    outer loop
      vertex -36.6489 -3.84062 3
      vertex -36.3815 -4.40877 0
      vertex -36.3815 -4.40877 3
    endloop
  endfacet
  facet normal -0.770468 -0.637478 0
    outer loop
      vertex -35.6448 -5.42274 0
      vertex -36.0451 -4.93893 3
      vertex -36.0451 -4.93893 0
    endloop
  endfacet
  facet normal -0.770468 -0.637478 0
    outer loop
      vertex -36.0451 -4.93893 3
      vertex -35.6448 -5.42274 0
      vertex -35.6448 -5.42274 3
    endloop
  endfacet
  facet normal -0.587771 -0.809027 0
    outer loop
      vertex -35.1871 -5.85257 0
      vertex -34.6791 -6.22164 3
      vertex -35.1871 -5.85257 3
    endloop
  endfacet
  facet normal -0.587771 -0.809027 -0
    outer loop
      vertex -34.6791 -6.22164 3
      vertex -35.1871 -5.85257 0
      vertex -34.6791 -6.22164 0
    endloop
  endfacet
  facet normal 1 -0 0
    outer loop
      vertex 37 -2 3
      vertex 37 2 0
      vertex 37 2 3
    endloop
  endfacet
  facet normal 1 0 0
    outer loop
      vertex 37 2 0
      vertex 37 -2 3
      vertex 37 -2 0
    endloop
  endfacet
  facet normal 0.998029 0.0627481 0
    outer loop
      vertex 37 2 3
      vertex 36.9606 2.62667 0
      vertex 36.9606 2.62667 3
    endloop
  endfacet
  facet normal 0.998029 0.0627481 0
    outer loop
      vertex 36.9606 2.62667 0
      vertex 37 2 3
      vertex 37 2 0
    endloop
  endfacet
  facet normal 0.982275 -0.187447 0
    outer loop
      vertex 36.8429 -3.24345 3
      vertex 36.9606 -2.62667 0
      vertex 36.9606 -2.62667 3
    endloop
  endfacet
  facet normal 0.982275 -0.187447 0
    outer loop
      vertex 36.9606 -2.62667 0
      vertex 36.8429 -3.24345 3
      vertex 36.8429 -3.24345 0
    endloop
  endfacet
  facet normal 0.951072 -0.30897 0
    outer loop
      vertex 36.6489 -3.84062 3
      vertex 36.8429 -3.24345 0
      vertex 36.8429 -3.24345 3
    endloop
  endfacet
  facet normal 0.951072 -0.30897 0
    outer loop
      vertex 36.8429 -3.24345 0
      vertex 36.6489 -3.84062 3
      vertex 36.6489 -3.84062 0
    endloop
  endfacet
  facet normal 0.904797 -0.425843 0
    outer loop
      vertex 36.3815 -4.40877 3
      vertex 36.6489 -3.84062 0
      vertex 36.6489 -3.84062 3
    endloop
  endfacet
  facet normal 0.904797 -0.425843 0
    outer loop
      vertex 36.6489 -3.84062 0
      vertex 36.3815 -4.40877 3
      vertex 36.3815 -4.40877 0
    endloop
  endfacet
  facet normal 0.684565 -0.728952 0
    outer loop
      vertex 35.1871 -5.85257 0
      vertex 35.6448 -5.42274 3
      vertex 35.1871 -5.85257 3
    endloop
  endfacet
  facet normal 0.684565 -0.728952 0
    outer loop
      vertex 35.6448 -5.42274 3
      vertex 35.1871 -5.85257 0
      vertex 35.6448 -5.42274 0
    endloop
  endfacet
  facet normal 0.587771 -0.809027 0
    outer loop
      vertex 34.6791 -6.22164 0
      vertex 35.1871 -5.85257 3
      vertex 34.6791 -6.22164 3
    endloop
  endfacet
  facet normal 0.587771 -0.809027 0
    outer loop
      vertex 35.1871 -5.85257 3
      vertex 34.6791 -6.22164 0
      vertex 35.1871 -5.85257 0
    endloop
  endfacet
  facet normal 0.770468 -0.637478 0
    outer loop
      vertex 35.6448 -5.42274 3
      vertex 36.0451 -4.93893 0
      vertex 36.0451 -4.93893 3
    endloop
  endfacet
  facet normal 0.770468 -0.637478 0
    outer loop
      vertex 36.0451 -4.93893 0
      vertex 35.6448 -5.42274 3
      vertex 35.6448 -5.42274 0
    endloop
  endfacet
  facet normal 0.368135 -0.929773 0
    outer loop
      vertex 33.5451 -6.75528 0
      vertex 34.1289 -6.52413 3
      vertex 33.5451 -6.75528 3
    endloop
  endfacet
  facet normal 0.368135 -0.929773 0
    outer loop
      vertex 34.1289 -6.52413 3
      vertex 33.5451 -6.75528 0
      vertex 34.1289 -6.52413 0
    endloop
  endfacet
  facet normal 0.481772 -0.876297 0
    outer loop
      vertex 34.1289 -6.52413 0
      vertex 34.6791 -6.22164 3
      vertex 34.1289 -6.52413 3
    endloop
  endfacet
  facet normal 0.481772 -0.876297 0
    outer loop
      vertex 34.6791 -6.22164 3
      vertex 34.1289 -6.52413 0
      vertex 34.6791 -6.22164 0
    endloop
  endfacet
  facet normal 0.248691 -0.968583 0
    outer loop
      vertex 32.9369 -6.91144 0
      vertex 33.5451 -6.75528 3
      vertex 32.9369 -6.91144 3
    endloop
  endfacet
  facet normal 0.248691 -0.968583 0
    outer loop
      vertex 33.5451 -6.75528 3
      vertex 32.9369 -6.91144 0
      vertex 33.5451 -6.75528 0
    endloop
  endfacet
  facet normal 0.844364 0.53577 0
    outer loop
      vertex 36.3815 4.40877 3
      vertex 36.0451 4.93893 0
      vertex 36.0451 4.93893 3
    endloop
  endfacet
  facet normal 0.844364 0.53577 0
    outer loop
      vertex 36.0451 4.93893 0
      vertex 36.3815 4.40877 3
      vertex 36.3815 4.40877 0
    endloop
  endfacet
  facet normal 0.248691 0.968583 -0
    outer loop
      vertex 33.5451 6.75528 0
      vertex 32.9369 6.91144 3
      vertex 33.5451 6.75528 3
    endloop
  endfacet
  facet normal 0.248691 0.968583 0
    outer loop
      vertex 32.9369 6.91144 3
      vertex 33.5451 6.75528 0
      vertex 32.9369 6.91144 0
    endloop
  endfacet
  facet normal 0.481772 0.876297 -0
    outer loop
      vertex 34.6791 6.22164 0
      vertex 34.1289 6.52413 3
      vertex 34.6791 6.22164 3
    endloop
  endfacet
  facet normal 0.481772 0.876297 0
    outer loop
      vertex 34.1289 6.52413 3
      vertex 34.6791 6.22164 0
      vertex 34.1289 6.52413 0
    endloop
  endfacet
  facet normal -0.951072 0.30897 0
    outer loop
      vertex -36.8429 3.24345 0
      vertex -36.6489 3.84062 3
      vertex -36.6489 3.84062 0
    endloop
  endfacet
  facet normal -0.951072 0.30897 0
    outer loop
      vertex -36.6489 3.84062 3
      vertex -36.8429 3.24345 0
      vertex -36.8429 3.24345 3
    endloop
  endfacet
  facet normal -0.770468 0.637478 0
    outer loop
      vertex -36.0451 4.93893 0
      vertex -35.6448 5.42274 3
      vertex -35.6448 5.42274 0
    endloop
  endfacet
  facet normal -0.770468 0.637478 0
    outer loop
      vertex -35.6448 5.42274 3
      vertex -36.0451 4.93893 0
      vertex -36.0451 4.93893 3
    endloop
  endfacet
  facet normal -0.248691 0.968583 0
    outer loop
      vertex -32.9369 6.91144 0
      vertex -33.5451 6.75528 3
      vertex -32.9369 6.91144 3
    endloop
  endfacet
  facet normal -0.248691 0.968583 0
    outer loop
      vertex -33.5451 6.75528 3
      vertex -32.9369 6.91144 0
      vertex -33.5451 6.75528 0
    endloop
  endfacet
  facet normal -0.684565 0.728952 0
    outer loop
      vertex -35.1871 5.85257 0
      vertex -35.6448 5.42274 3
      vertex -35.1871 5.85257 3
    endloop
  endfacet
  facet normal -0.684565 0.728952 0
    outer loop
      vertex -35.6448 5.42274 3
      vertex -35.1871 5.85257 0
      vertex -35.6448 5.42274 0
    endloop
  endfacet
  facet normal -0.844364 -0.53577 0
    outer loop
      vertex -36.0451 -4.93893 0
      vertex -36.3815 -4.40877 3
      vertex -36.3815 -4.40877 0
    endloop
  endfacet
  facet normal -0.844364 -0.53577 0
    outer loop
      vertex -36.3815 -4.40877 3
      vertex -36.0451 -4.93893 0
      vertex -36.0451 -4.93893 3
    endloop
  endfacet
  facet normal -0.125332 -0.992115 0
    outer loop
      vertex -32.9369 -6.91144 0
      vertex -32.314 -6.99013 3
      vertex -32.9369 -6.91144 3
    endloop
  endfacet
  facet normal -0.125332 -0.992115 -0
    outer loop
      vertex -32.314 -6.99013 3
      vertex -32.9369 -6.91144 0
      vertex -32.314 -6.99013 0
    endloop
  endfacet
  facet normal 0.904797 0.425843 0
    outer loop
      vertex 36.6489 3.84062 3
      vertex 36.3815 4.40877 0
      vertex 36.3815 4.40877 3
    endloop
  endfacet
  facet normal 0.904797 0.425843 0
    outer loop
      vertex 36.3815 4.40877 0
      vertex 36.6489 3.84062 3
      vertex 36.6489 3.84062 0
    endloop
  endfacet
  facet normal 0.587771 0.809027 -0
    outer loop
      vertex 35.1871 5.85257 0
      vertex 34.6791 6.22164 3
      vertex 35.1871 5.85257 3
    endloop
  endfacet
  facet normal 0.587771 0.809027 0
    outer loop
      vertex 34.6791 6.22164 3
      vertex 35.1871 5.85257 0
      vertex 34.6791 6.22164 0
    endloop
  endfacet
  facet normal -0.125332 0.992115 0
    outer loop
      vertex -32.314 6.99013 0
      vertex -32.9369 6.91144 3
      vertex -32.314 6.99013 3
    endloop
  endfacet
  facet normal -0.125332 0.992115 0
    outer loop
      vertex -32.9369 6.91144 3
      vertex -32.314 6.99013 0
      vertex -32.9369 6.91144 0
    endloop
  endfacet
  facet normal 0.982275 0.187447 0
    outer loop
      vertex 36.9606 2.62667 3
      vertex 36.8429 3.24345 0
      vertex 36.8429 3.24345 3
    endloop
  endfacet
  facet normal 0.982275 0.187447 0
    outer loop
      vertex 36.8429 3.24345 0
      vertex 36.9606 2.62667 3
      vertex 36.9606 2.62667 0
    endloop
  endfacet
  facet normal -0.844364 0.53577 0
    outer loop
      vertex -36.3815 4.40877 0
      vertex -36.0451 4.93893 3
      vertex -36.0451 4.93893 0
    endloop
  endfacet
  facet normal -0.844364 0.53577 0
    outer loop
      vertex -36.0451 4.93893 3
      vertex -36.3815 4.40877 0
      vertex -36.3815 4.40877 3
    endloop
  endfacet
  facet normal -0.587771 0.809027 0
    outer loop
      vertex -34.6791 6.22164 0
      vertex -35.1871 5.85257 3
      vertex -34.6791 6.22164 3
    endloop
  endfacet
  facet normal -0.587771 0.809027 0
    outer loop
      vertex -35.1871 5.85257 3
      vertex -34.6791 6.22164 0
      vertex -35.1871 5.85257 0
    endloop
  endfacet
  facet normal -0.481772 0.876297 0
    outer loop
      vertex -34.1289 6.52413 0
      vertex -34.6791 6.22164 3
      vertex -34.1289 6.52413 3
    endloop
  endfacet
  facet normal -0.481772 0.876297 0
    outer loop
      vertex -34.6791 6.22164 3
      vertex -34.1289 6.52413 0
      vertex -34.6791 6.22164 0
    endloop
  endfacet
endsolid OpenSCAD_Model
